<?xml version="1.0" encoding="iso-8859-1"?>
<!-- Generator: Adobe Illustrator 25.2.3, SVG Export Plug-In . SVG Version: 6.00 Build 0)  -->
<svg version="1.1" xmlns="http://www.w3.org/2000/svg" xmlns:xlink="http://www.w3.org/1999/xlink" x="0px" y="0px"
	 viewBox="0 0 1000 1000" style="enable-background:new 0 0 1000 1000;" xml:space="preserve">
<g id="ampersand">
	<g>
		<path style="fill:#010101;" d="M685.794,590.626c-25.169-17.008-59.358-10.392-76.365,14.777
			c-8.709,12.889-38.413,32.944-78.335,46.338c-40.012,13.425-80.58,16.954-105.875,9.207C409.247,656.058,400,648.233,400,622.712
			c0-18.493,16.56-39.814,45.433-58.497c36.731-23.768,89.171-39.973,143.874-44.46c29.259-2.399,51.454-27.355,50.451-56.695
			c-1.004-29.34-24.894-52.72-54.248-53.116c-0.407-0.005-41.258-0.632-85.659-7.855c-53.12-8.641-76.895-21.132-84.347-27.403
			c4.316-11.619,23.174-39.13,59.019-62.605c32.414-21.229,65.215-30.028,87.746-23.535c29.186,8.412,59.668-8.431,68.08-37.619
			c8.411-29.188-8.432-59.668-37.619-68.08c-23.329-6.723-48.104-8.179-73.968-4.394c12.041-9.873,19.841-24.763,20.144-41.551
			c0.718-39.725-13.505-78.635-42.271-115.652c-18.638-23.984-53.192-28.318-77.177-9.679
			c-23.985,18.639-28.318,53.193-9.679,77.177c13.139,16.907,19.401,32.008,19.145,46.167c-0.492,27.257,18.934,50.227,44.876,55.05
			c-26.207,9.518-52.474,23.923-76.651,42.116c-24.946,18.772-46.59,40.695-62.591,63.397
			c-19.863,28.182-29.935,55.707-29.935,81.808c0,21.987,7.153,43.14,20.687,61.172c10.312,13.739,24.436,25.846,41.98,35.984
			c2.598,1.501,5.289,2.969,8.07,4.401C320.2,517.926,290,568.637,290,622.712c0,71.098,37.547,123.371,103.014,143.416
			c19.335,5.921,40.751,8.896,63.902,8.896c4.699,0,9.479-0.138,14.318-0.383c-17.019,12.015-26.448,33.216-22.377,55.037
			c6.514,34.915,6.514,70.321,0,105.235c-5.571,29.86,14.12,58.583,43.98,64.154c3.41,0.636,6.802,0.942,10.149,0.942
			c25.966,0,49.07-18.473,54.005-44.923c9.011-48.301,9.011-97.282,0-145.583c-3.684-19.747-17.497-35.037-35.064-41.524
			c14.735-3.058,29.596-7.068,44.153-11.951c27.536-9.238,53.796-21.491,75.943-35.436c25.785-16.235,45.483-34.27,58.547-53.602
			C717.578,641.823,710.962,607.633,685.794,590.626z"/>
	</g>
</g>
<g id="Layer_1">
</g>
</svg>
