<?xml version="1.0" encoding="iso-8859-1"?>
<!-- Generator: Adobe Illustrator 25.2.3, SVG Export Plug-In . SVG Version: 6.00 Build 0)  -->
<svg version="1.1" xmlns="http://www.w3.org/2000/svg" xmlns:xlink="http://www.w3.org/1999/xlink" x="0px" y="0px"
	 viewBox="0 0 1000 1000" style="enable-background:new 0 0 1000 1000;" xml:space="preserve">
<g id="asterisk">
	<g>
		<path style="fill:#010101;" d="M664.539,385.561c-16.373-2.883-40.813-5.013-70.858-6.647
			c22.729-33.357,44.165-63.539,60.953-83.228c19.708-23.114,16.948-57.828-6.166-77.537c-23.113-19.708-57.828-16.948-77.537,6.166
			c-21.063,24.703-45.537,59.302-71.774,97.97c-20.018-25.336-39.129-46.245-57.075-60.602
			c-23.719-18.976-58.331-15.13-77.306,8.589c-18.976,23.72-15.13,58.331,8.589,77.306c7.616,6.093,16.277,14.98,25.689,25.95
			c-9.879-0.162-19.833-0.321-29.83-0.481l-23.331-0.375c-0.306-0.005-0.606-0.007-0.911-0.007
			c-29.957,0-54.486,24.042-54.975,54.107c-0.493,30.372,23.728,55.393,54.1,55.886l23.358,0.375c7.2,0.115,14.463,0.231,21.76,0.35
			c-4.029,5.469-7.946,10.676-11.722,15.554c-18.595,24.019-14.199,58.564,9.82,77.16c10.02,7.757,21.869,11.513,33.63,11.513
			c16.432,0,32.691-7.335,43.529-21.333c11.373-14.69,23.58-31.59,36.203-49.676c6.498,9.917,12.947,19.807,19.293,29.538
			c7.564,11.602,15.14,23.217,22.691,34.729c10.561,16.099,28.124,24.838,46.04,24.838c10.349,0,20.816-2.917,30.116-9.018
			c25.398-16.661,32.481-50.758,15.82-76.156c-6.541-9.97-13.097-20.019-19.65-30.067c12.681,0.991,23.054,2.124,30.465,3.429
			c3.229,0.568,6.436,0.843,9.604,0.843c26.192,0,49.402-18.783,54.103-45.47C714.435,419.351,694.454,390.829,664.539,385.561z"/>
	</g>
</g>
<g id="Layer_1">
</g>
</svg>
