<?xml version="1.0" encoding="iso-8859-1"?>
<!-- Generator: Adobe Illustrator 25.2.3, SVG Export Plug-In . SVG Version: 6.00 Build 0)  -->
<svg version="1.1" xmlns="http://www.w3.org/2000/svg" xmlns:xlink="http://www.w3.org/1999/xlink" x="0px" y="0px"
	 viewBox="0 0 1000 1000" style="enable-background:new 0 0 1000 1000;" xml:space="preserve">
<g id="circumflexAccent">
	<g>
		<path d="M686.503,214.91c-5.277-9.845-13.5-28.919-19.807-43.549c-13.804-32.019-29.448-68.309-48.637-98.931
			c-12.185-19.444-24.454-34.414-37.51-45.765C555.201,4.626,530.541,0,514.317,0c-27.885,0-50.862,17.631-76.784,44.104
			c-20.994,21.44-43.189,48.561-58.111,67.537c-7.49,9.525-73.548,94.095-86.266,129.993c-10.143,28.632,4.845,60.065,33.478,70.209
			c6.073,2.151,12.27,3.172,18.365,3.172c22.357,0,43.318-13.736,51.536-35.802c3.806-8.311,26.215-43.761,62.348-90.582
			c26.686-34.581,46.04-56.24,58.473-68.812c3.832,5.127,8.655,12.432,14.402,22.759c12.184,21.896,23.733,48.689,33.925,72.329
			c8.271,19.188,16.085,37.312,23.633,51.439c5.363,10.039,10.342,17.645,15.668,23.937C622.274,310.712,641.727,315,655,315
			c30.376,0,55-24.625,55-55C710,241.341,700.711,224.854,686.503,214.91z"/>
	</g>
</g>
<g id="Layer_1">
</g>
</svg>
