<?xml version="1.0" encoding="iso-8859-1"?>
<!-- Generator: Adobe Illustrator 25.2.3, SVG Export Plug-In . SVG Version: 6.00 Build 0)  -->
<svg version="1.1" xmlns="http://www.w3.org/2000/svg" xmlns:xlink="http://www.w3.org/1999/xlink" x="0px" y="0px"
	 viewBox="0 0 1000 1000" style="enable-background:new 0 0 1000 1000;" xml:space="preserve">
<g id="colon">
	<g>
		<path d="M475.306,376.77c5.195,0,10.479-0.742,15.712-2.3l20.831-6.2c29.113-8.666,45.689-39.291,37.024-68.404
			c-8.665-29.114-39.293-45.689-68.404-37.025l-20.83,6.2c-29.114,8.665-45.69,39.291-37.025,68.404
			C429.722,361.325,451.602,376.77,475.306,376.77z"/>
		<path d="M577.564,735.261c-8.324-29.211-38.754-46.147-67.968-37.819l-33.914,9.665c-29.213,8.324-46.146,38.755-37.82,67.968
			c6.89,24.175,28.917,39.939,52.866,39.939c4.99,0,10.064-0.685,15.102-2.12l33.915-9.665
			C568.957,794.904,585.89,764.474,577.564,735.261z"/>
	</g>
</g>
<g id="Layer_1">
</g>
</svg>
