<?xml version="1.0" encoding="iso-8859-1"?>
<!-- Generator: Adobe Illustrator 25.2.3, SVG Export Plug-In . SVG Version: 6.00 Build 0)  -->
<svg version="1.1" xmlns="http://www.w3.org/2000/svg" xmlns:xlink="http://www.w3.org/1999/xlink" x="0px" y="0px"
	 viewBox="0 0 1000 1000" style="enable-background:new 0 0 1000 1000;" xml:space="preserve">
<g id="commercialAt">
	<g>
		<path d="M485.012,599.084c31.933,3.95,62.808-5.038,86.94-25.312c17.541-14.736,29.039-33.235,36.482-52.345
			c5.739-1.302,11.419-3.261,16.982-5.889c33.715-15.928,58.049-54.283,72.324-114c11.123-46.528,14.857-100.63,10.514-152.338
			c-0.027-0.332-0.059-0.664-0.092-0.995c-5.741-56.099-26.673-103.45-60.533-136.935c-36.764-36.355-87.773-55.572-147.514-55.572
			c-26.059,0-65.175,8.793-103.536,50.684c-22.514,24.585-42.482,57.933-59.351,99.118C307.656,277.702,290,368.343,290,447.964
			c0,78.543,16.816,162.001,46.137,228.976c16.224,37.057,35.538,67.312,57.406,89.927c28.184,29.145,61.17,45.59,95.393,47.558
			c6.662,0.383,13.095,0.576,19.324,0.576c43.292-0.001,76.42-9.319,103.193-28.836c30.174-21.994,45.422-52.913,56.556-75.489
			c13.436-27.243,2.242-60.22-25-73.654c-27.239-13.434-60.218-2.242-73.654,25c-8.162,16.55-15.016,29.654-22.697,35.254
			c-10.812,7.879-33.925,8.336-51.408,7.331c-13.301-0.765-37.232-23.554-58.346-71.78c-9.885-22.581-18.066-48.148-24.192-74.945
			C431.291,581.098,456.461,595.551,485.012,599.084z M511.154,453.329c-1.153,22.955-6.804,33.569-9.961,36.221
			c-0.198,0.167-0.577,0.49-1.871,0.434c-2.653-2.624-10.154-15.013-10.175-42.064c-0.02-24.845,5.624-42.322,10.043-51.092
			c6.623,4.388,13.08,14.331,15.24,28.022c0.43,2.718,1.05,5.355,1.847,7.905C513.303,439.102,511.519,446.065,511.154,453.329z
			 M439.021,247.194c24.317-59.37,50.379-81.495,61.095-81.495c30.599,0,54.207,8.003,70.167,23.786
			c19.437,19.221,26.18,48.272,28.401,69.44c2.253,27.28,1.614,55.833-1.757,82.534c-4.808-6.881-10.188-13.318-16.113-19.252
			c-23.896-23.937-54.832-37.383-87.108-37.863c-0.47-0.007-0.935-0.01-1.403-0.01c-24.762,0-47.735,9.759-66.514,28.276
			c-3.91,3.855-7.61,8.102-11.084,12.696C421.066,297.624,429.3,270.927,439.021,247.194z"/>
	</g>
</g>
<g id="Layer_1">
</g>
</svg>
