<?xml version="1.0" encoding="iso-8859-1"?>
<!-- Generator: Adobe Illustrator 25.2.3, SVG Export Plug-In . SVG Version: 6.00 Build 0)  -->
<svg version="1.1" xmlns="http://www.w3.org/2000/svg" xmlns:xlink="http://www.w3.org/1999/xlink" x="0px" y="0px"
	 viewBox="0 0 1000 1000" style="enable-background:new 0 0 1000 1000;" xml:space="preserve">
<g id="digitFour">
	<g>
		<path style="fill:#010101;" d="M709.363,696.355c-14.364-93.613-9.825-217.477-5.821-326.76
			c3.771-102.917,7.332-200.125-4.207-268.102c-5.085-29.947-33.478-50.105-63.43-45.019c-29.947,5.083-50.103,33.482-45.02,63.429
			c7.33,43.177,7.149,106.5,5.08,177.015c-19.391,7.671-54.116,18.037-93.917,24.212c-62.159,9.642-92.4,2.575-100.551-1.654
			c-2.6-8.316-3.323-33.528,9.236-72.238c12.574-38.757,33.81-76.066,55.421-97.368c21.633-21.323,21.884-56.146,0.561-77.78
			c-21.323-21.633-56.146-21.884-77.78-0.561c-37.171,36.639-69.649,94.594-86.878,155.03
			c-21.214,74.417-14.205,134.542,19.735,169.302c26.103,26.733,67.682,40.157,124.075,40.155c22.267,0,46.852-2.094,73.694-6.289
			c19.167-2.995,45.691-8.334,72.335-15.781c-3.382,101.265-4.99,209.622,8.738,299.092c4.174,27.198,27.603,46.666,54.296,46.666
			c2.773,0,5.584-0.211,8.41-0.645C693.366,754.454,713.971,726.38,709.363,696.355z"/>
	</g>
</g>
<g id="Layer_1">
</g>
</svg>
