<?xml version="1.0" encoding="iso-8859-1"?>
<!-- Generator: Adobe Illustrator 25.2.3, SVG Export Plug-In . SVG Version: 6.00 Build 0)  -->
<svg version="1.1" xmlns="http://www.w3.org/2000/svg" xmlns:xlink="http://www.w3.org/1999/xlink" x="0px" y="0px"
	 viewBox="0 0 1000 1000" style="enable-background:new 0 0 1000 1000;" xml:space="preserve">
<g id="digitEight">
	<g>
		<path d="M640.132,410.063c-6.714-7.791-13.995-15.813-21.88-24.102c17.286-15.412,32.297-30.876,44.726-47.222
			c18.607-24.472,30.153-49.144,35.298-75.425c5.535-28.274,3.257-58.1-6.772-88.646c-16.04-48.858-52.159-86.368-101.704-105.619
			C516.132,40.425,420.162,54.223,326.5,106.906c-26.475,14.891-35.865,48.425-20.974,74.9c1.891,3.362,4.084,6.451,6.524,9.248
			c-1.962,1.915-3.807,4.002-5.51,6.256c-18.312,24.235-13.511,58.727,10.724,77.039c51.355,38.805,95.258,73.647,132.088,104.857
			c-8.886,7.149-17.731,14.06-26.392,20.827c-30.286,23.663-58.893,46.014-82.131,72.792
			c-28.938,33.346-45.166,69.046-49.588,109.101c-5.257,38.297,6.423,76.649,32.96,108.117
			c39.165,46.44,106.465,74.166,184.644,76.066c0.445,0.011,0.891,0.017,1.337,0.017c0.361,0,0.724-0.004,1.085-0.011
			c49.726-0.981,99.721-22.853,137.166-60.005c38.868-38.563,60.73-88.975,61.56-141.945c0.004-0.241,0.006-0.481,0.007-0.723
			C710.126,513.581,688.577,466.277,640.132,410.063z M394.809,195.097c29.326-14.841,58.671-24.678,85.659-28.648
			c26.708-3.93,50.739-2.154,69.491,5.133c19.093,7.419,31.206,19.652,37.032,37.399c10.966,33.4,2.13,57.182-49.294,101.024
			C498.451,275.94,451.218,237.983,394.809,195.097z M570.958,628.023c-17.278,17.144-39.363,27.337-60.761,28.083
			c-53.446-1.587-87.662-20.088-101.906-36.979c-9.652-11.446-8.441-19.725-8.043-22.444c0.107-0.736,0.2-1.475,0.278-2.215
			c4.081-38.841,33.722-63.66,90.16-107.757c13.114-10.246,26.63-20.807,40.625-32.415c9.506,9.69,17.994,18.874,25.495,27.578
			c42.612,49.445,43.208,72.096,43.195,80.893C599.537,586.73,589.231,609.894,570.958,628.023z"/>
	</g>
</g>
<g id="Layer_1">
</g>
</svg>
