<?xml version="1.0" encoding="iso-8859-1"?>
<!-- Generator: Adobe Illustrator 25.2.3, SVG Export Plug-In . SVG Version: 6.00 Build 0)  -->
<svg version="1.1" xmlns="http://www.w3.org/2000/svg" xmlns:xlink="http://www.w3.org/1999/xlink" x="0px" y="0px"
	 viewBox="0 0 1000 1000" style="enable-background:new 0 0 1000 1000;" xml:space="preserve">
<g id="digitSix">
	<g>
		<path d="M708.503,456.686c-0.105-1.069-0.242-2.134-0.41-3.194c-6.203-39.198-19.317-70.413-38.978-92.777
			c-22.456-25.545-53.038-38.933-86.153-37.674c-46.643,1.763-94.626,32.841-131.647,85.265
			c-17.008,24.085-31.013,51.615-41.541,81.228c-6.404-38.647-8.983-78.099-9.77-111.542c0.494-65.915,11.971-126.863,33.203-176.3
			c19.465-45.324,46.67-79.973,78.672-100.2c25.677-16.229,33.336-50.2,17.106-75.877C512.757-0.063,478.784-7.721,453.108,8.508
			C402.24,40.66,360.407,92.452,332.134,158.284c-27.065,63.019-41.634,139.029-42.133,219.814c-0.003,0.53,0.001,1.06,0.013,1.59
			c2.705,118.923,22.923,212.043,60.095,276.776c19.585,34.108,44.004,60.642,72.577,78.864
			c29.024,18.51,61.624,28.149,96.891,28.649c0.261,0.004,0.521,0.006,0.782,0.006c1.42,0,2.841-0.055,4.257-0.165
			c41.997-3.261,81.174-25.248,113.297-63.583c25.213-30.089,45.216-69.246,57.844-113.236
			C708.224,543.573,712.631,498.512,708.503,456.686z M553.601,629.586c-15.282,18.237-28.087,23.154-35.39,24.312
			c-17.718-0.859-31.713-7.153-42.875-15.788c12.73-9.084,21.524-23.509,22.895-40.316c5.381-65.961,30.299-108.79,44.673-128.45
			c20.695-28.305,38.169-35.521,43.353-36.31c2.831,2.957,9.137,13.415,12.93,36.064
			C604.187,524.711,585.141,591.945,553.601,629.586z"/>
	</g>
</g>
<g id="Layer_1">
</g>
</svg>
