<?xml version="1.0" encoding="iso-8859-1"?>
<!-- Generator: Adobe Illustrator 25.2.3, SVG Export Plug-In . SVG Version: 6.00 Build 0)  -->
<svg version="1.1" xmlns="http://www.w3.org/2000/svg" xmlns:xlink="http://www.w3.org/1999/xlink" x="0px" y="0px"
	 viewBox="0 0 1000 1000" style="enable-background:new 0 0 1000 1000;" xml:space="preserve">
<g id="digitSeven">
	<g>
		<path style="fill:#010101;" d="M659.675,374.255c-20.219-1.725-44.459-2.54-70.763-2.614
			c35.011-67.031,73.493-134.878,112.52-196.342c10.684-16.826,11.428-38.116,1.946-55.647
			c-9.482-17.531-27.707-28.561-47.637-28.83C522.066,89.02,407.889,77.089,364.86,60.427
			c-28.326-10.967-60.181,3.103-71.149,31.429c-10.969,28.326,3.103,60.181,31.429,71.149
			c54.762,21.205,153.789,30.601,234.256,34.75c-31.974,55.27-65.222,116.951-95.878,178.002
			c-47.925,3.043-93.416,7.536-126.865,12.672c-30.024,4.61-50.625,32.687-46.015,62.71c4.176,27.196,27.604,46.66,54.295,46.66
			c2.775,0,5.588-0.211,8.416-0.645c15.752-2.419,34.67-4.695,55.423-6.724c-30.973,68.749-61.176,144.062-74.56,201.859
			c-6.853,29.592,11.581,59.137,41.173,65.99c4.176,0.967,8.346,1.431,12.457,1.431c25.018-0.003,47.647-17.188,53.534-42.604
			c11.32-48.884,45.738-135.971,92.395-234.659c44.03-1.418,85.938-1.201,116.556,1.411c30.255,2.586,56.894-19.859,59.476-50.126
			C712.383,403.465,689.94,376.837,659.675,374.255z"/>
	</g>
</g>
<g id="Layer_1">
</g>
</svg>
