<?xml version="1.0" encoding="iso-8859-1"?>
<!-- Generator: Adobe Illustrator 25.2.3, SVG Export Plug-In . SVG Version: 6.00 Build 0)  -->
<svg version="1.1" xmlns="http://www.w3.org/2000/svg" xmlns:xlink="http://www.w3.org/1999/xlink" x="0px" y="0px"
	 viewBox="0 0 1000 1000" style="enable-background:new 0 0 1000 1000;" xml:space="preserve">
<g id="digitTwo">
	<g>
		<path d="M709.302,679.406c-4.826-29.988-33.046-50.396-63.041-45.562c-65.095,10.477-122.61,15.68-166.333,15.051
			c-35.082-0.505-53.921-4.585-63.116-7.574c2.57-7.377,8.593-21.205,22.699-44.982c17.453-29.419,41.157-64.243,68.604-104.566
			c57.046-83.807,128.041-188.106,176.408-296.276c10.562-23.618,3.233-51.403-17.601-66.742
			c-34.084-25.093-87.758-41.806-159.53-49.675c-53.796-5.897-114.881-6.407-167.596-1.398
			c-30.239,2.874-52.423,29.717-49.55,59.957c2.875,30.24,29.719,52.427,59.957,49.55c44.921-4.27,99.202-3.807,145.201,1.236
			c27.837,3.052,48.953,7.284,64.787,11.617c-42.686,82.449-97.487,162.957-143.009,229.834
			c-33.128,48.669-61.739,90.703-81.733,126.801c-19.972,36.059-38.445,77.718-26.994,116.15
			c4.344,21.134,16.341,39.504,34.983,53.438c28.285,21.142,70.574,31.497,133.086,32.59c3.554,0.062,7.159,0.093,10.829,0.093
			c49.018,0,108.288-5.542,176.386-16.501C693.729,737.62,714.128,709.396,709.302,679.406z"/>
	</g>
</g>
<g id="Layer_1">
</g>
</svg>
