<?xml version="1.0" encoding="iso-8859-1"?>
<!-- Generator: Adobe Illustrator 25.2.3, SVG Export Plug-In . SVG Version: 6.00 Build 0)  -->
<svg version="1.1" xmlns="http://www.w3.org/2000/svg" xmlns:xlink="http://www.w3.org/1999/xlink" x="0px" y="0px"
	 viewBox="0 0 1000 1000" style="enable-background:new 0 0 1000 1000;" xml:space="preserve">
<g id="digitOne">
	<g>
		<path style="fill:#010101;" d="M657.002,653.141c-21.272-0.774-52.061-1.153-89.041-1.042
			c12.695-208.435,33.844-415.564,55.455-539.999c3.487-20.077-4.412-40.437-20.528-52.908
			c-16.114-12.47-37.802-15.011-56.366-6.597c-55.479,25.146-101.53,40.919-140.785,48.219
			c-29.863,5.553-49.571,34.265-44.017,64.128c5.553,29.863,34.26,49.573,64.128,44.018c23.307-4.334,48.074-10.882,74.663-19.767
			C483.389,316.727,467.747,485.35,457.67,653.61c-36.771,0.854-75.689,2.087-114.995,3.75
			c-30.349,1.285-53.91,26.929-52.625,57.276c1.251,29.558,25.604,52.676,54.91,52.676c0.784,0,1.575-0.017,2.366-0.05
			c126.431-5.352,251.852-6.155,305.672-4.194c30.331,1.102,55.86-22.605,56.966-52.962
			C711.069,679.751,687.357,654.247,657.002,653.141z"/>
	</g>
</g>
<g id="Layer_1">
</g>
</svg>
