<?xml version="1.0" encoding="iso-8859-1"?>
<!-- Generator: Adobe Illustrator 25.2.3, SVG Export Plug-In . SVG Version: 6.00 Build 0)  -->
<svg version="1.1" xmlns="http://www.w3.org/2000/svg" xmlns:xlink="http://www.w3.org/1999/xlink" x="0px" y="0px"
	 viewBox="0 0 1000 1000" style="enable-background:new 0 0 1000 1000;" xml:space="preserve">
<g id="digitNine">
	<g>
		<path d="M705.334,211.421c-0.252-1.356-0.556-2.703-0.909-4.036c-8.222-30.998-20.482-66.683-49.08-96.324
			c-32.259-33.434-77.35-51.907-137.849-56.475c-1.127-0.085-2.256-0.136-3.386-0.151c-32.133-0.449-63.371,5.651-92.85,18.109
			c-26.761,11.31-50.857,27.297-71.617,47.519c-37.321,36.352-59.038,82.065-59.582,125.357
			c-0.347,25.36,0.324,54.915,12.759,84.756c15.559,37.338,45.097,64.156,87.793,79.707c0.849,0.309,1.705,0.598,2.568,0.865
			c55.982,17.318,118.624,16.45,200.76-3.129c-6.434,83.396-17.69,186.66-32.521,293.365c-4.181,30.087,16.819,57.866,46.905,62.048
			c2.569,0.357,5.118,0.53,7.641,0.53c27.015-0.002,50.583-19.918,54.407-47.436C676.015,675.544,724.912,316.607,705.334,211.421z
			 M599.929,293.607c-3.638,0.223-7.312,0.813-10.968,1.795c-91.661,24.633-134.79,18.833-161.944,10.662
			c-23.204-8.725-27.52-18.571-26.964-59.203c0.142-11.259,8.342-30.468,26.343-48.002c13.287-12.942,41.794-34.448,84.451-34.448
			c0.042,0,0.083,0,0.125,0c31.005,2.562,52.938,10.305,65.212,23.026c10.104,10.472,15.918,25.966,21.33,45.955
			C599.601,246.113,600.363,266.743,599.929,293.607z"/>
	</g>
</g>
<g id="Layer_1">
</g>
</svg>
