<?xml version="1.0" encoding="iso-8859-1"?>
<!-- Generator: Adobe Illustrator 25.2.3, SVG Export Plug-In . SVG Version: 6.00 Build 0)  -->
<svg version="1.1" xmlns="http://www.w3.org/2000/svg" xmlns:xlink="http://www.w3.org/1999/xlink" x="0px" y="0px"
	 viewBox="0 0 1000 1000" style="enable-background:new 0 0 1000 1000;" xml:space="preserve">
<g id="digitThree">
	<g>
		<path d="M698.683,515.551c-12.147-48.42-33.439-91.017-61.572-123.187c-11.108-12.702-23.228-23.772-36.226-33.146
			c25.973-17.87,51.13-37.334,69.896-62.57c32.764-44.06,37.058-94.928,12.419-147.105c-20.75-43.941-54.857-73.939-98.635-86.751
			c-39.907-11.68-87.149-8.878-140.413,8.324c-40.24,12.996-83.432,33.879-128.378,62.071
			c-25.732,16.14-33.508,50.085-17.368,75.817c16.141,25.733,50.085,33.509,75.817,17.368c36.72-23.032,72.59-40.522,103.734-50.58
			c31.44-10.154,57.62-12.723,75.71-7.429c9.061,2.652,20.666,8.248,30.063,28.149c8.809,18.652,5.05,26.063-1.221,34.496
			c-12.446,16.737-38.533,34.104-63.761,50.899c-25.728,17.128-52.333,34.84-73.131,56.902
			c-14.898,15.803-19.102,38.893-10.729,58.931c8.372,20.039,27.752,33.275,49.464,33.782c28.076,0.656,50.957,11.533,69.952,33.254
			c16.723,19.122,29.753,45.935,37.682,77.541c7.419,29.569,9.8,61.234,6.706,89.162c-0.989,8.939-3.694,11.505-9.782,14.191
			c-16.256,7.173-45.645,6.478-78.614-1.855c-37.616-9.508-77.778-28.496-110.188-52.094
			c-24.556-17.879-58.957-12.466-76.836,12.089c-17.879,24.557-12.467,58.957,12.089,76.837
			c43.967,32.013,96.521,56.807,147.978,69.813c21.46,5.425,48.001,10.112,75.636,10.112c24.865,0,50.617-3.796,74.343-14.266
			c42.937-18.945,69.468-55.425,74.707-102.717C712.525,602.974,709.207,557.502,698.683,515.551z"/>
	</g>
</g>
<g id="Layer_1">
</g>
</svg>
