<?xml version="1.0" encoding="iso-8859-1"?>
<!-- Generator: Adobe Illustrator 25.2.3, SVG Export Plug-In . SVG Version: 6.00 Build 0)  -->
<svg version="1.1" xmlns="http://www.w3.org/2000/svg" xmlns:xlink="http://www.w3.org/1999/xlink" x="0px" y="0px"
	 viewBox="0 0 1000 1000" style="enable-background:new 0 0 1000 1000;" xml:space="preserve">
<g id="digitZero">
	<g>
		<path d="M683.643,226.582c-22.535-60.167-56.783-100.969-99.043-117.996c-8.222-3.312-18.611-6.426-30.745-7.847
			c-0.593-2.936-1.433-5.861-2.534-8.753c-10.808-28.387-42.579-42.638-70.97-31.832c-29.16,11.102-56.13,35.05-82.454,73.213
			c-19.48,28.243-38.687,64.849-55.543,105.861c-32.506,79.089-53.048,166.071-52.335,221.597
			c0.252,19.626,2.185,71.328,14.653,127.401c13.604,61.18,35.415,106.693,64.828,135.277
			c24.391,23.704,54.265,36.192,86.513,36.192c0.655,0,1.312-0.005,1.969-0.016c34.276-0.538,68.526-14.268,101.798-40.808
			c26.861-21.426,52.858-51.492,75.179-86.946c45.688-72.574,72.994-160.586,74.913-241.467
			C711.223,333.55,701.908,275.35,683.643,226.582z M599.903,387.851c-1.44,60.704-23.136,130.039-58.033,185.473
			c-32.776,52.063-67.357,76.085-85.617,76.372c-1.907,0.021-4.791,0.075-10.09-5.074c-6.238-6.063-22.051-26.021-34.113-80.27
			c-10.529-47.352-11.877-92.292-12.04-104.938c-0.522-40.595,17.607-113.943,44.085-178.367c3.802-9.25,7.561-17.842,11.249-25.804
			c1.395,0.106,2.79,0.159,4.187,0.159c14.872-0.001,29.7-5.998,40.545-17.822c18.088-19.719,35.131-30.296,43.415-26.963
			c9.078,3.657,24.251,20.138,37.14,54.548C593.889,300.563,600.914,345.281,599.903,387.851z"/>
	</g>
</g>
<g id="Layer_1">
</g>
</svg>
