<?xml version="1.0" encoding="iso-8859-1"?>
<!-- Generator: Adobe Illustrator 25.2.3, SVG Export Plug-In . SVG Version: 6.00 Build 0)  -->
<svg version="1.1" xmlns="http://www.w3.org/2000/svg" xmlns:xlink="http://www.w3.org/1999/xlink" x="0px" y="0px"
	 viewBox="0 0 1000 1000" style="enable-background:new 0 0 1000 1000;" xml:space="preserve">
<g id="digitFive">
	<g>
		<path d="M702.671,516.347c-4.438-35.736-17.934-68.828-40.111-98.356c-19.77-26.324-46.64-49.903-79.862-70.084
			c-44.094-26.784-100.422-48.264-167.985-64.104c14.087-36.024,35.769-76.361,64.286-119.45
			c66.635-12.646,131.328-29.899,197.968-58.929c27.848-12.131,40.589-44.541,28.457-72.389
			C693.292,5.187,660.886-7.557,633.034,4.577c-92.663,40.366-185.44,55.428-288.413,69.655c-30.09,4.157-51.112,31.92-46.955,62.01
			c3.243,23.472,20.852,41.416,42.723,46.205c-25.02,47.845-41.57,92.346-49.398,133.018c-2.795,14.522,0.376,29.559,8.798,41.716
			c8.422,12.157,21.385,20.409,35.964,22.896c90.629,15.457,243.974,55.175,257.499,147.919
			c2.92,70.768-14.892,98.885-30.448,109.999c-13.14,9.387-32.825,13.436-58.537,12.018c-25.38-1.395-55.451-8.061-89.657-19.855
			c0.182-7.506,1.553-15.684,4.476-20.922c14.802-26.525,5.299-60.027-21.226-74.829c-26.526-14.804-60.027-5.3-74.83,21.226
			c-10.804,19.359-17.296,43.991-18.282,69.356c-0.727,18.699,1.168,46.327,14.326,71.764c6.1,11.791,16.258,20.979,28.601,25.866
			c56.331,22.309,106.985,34.834,150.556,37.229c5.284,0.29,10.477,0.435,15.589,0.435c44.505-0.001,82.441-11.001,112.93-32.782
			c28.743-20.535,49.748-49.799,62.432-86.978c11.365-33.315,16.025-73.682,13.85-119.979
			C702.963,519.141,702.844,517.741,702.671,516.347z"/>
	</g>
</g>
<g id="Layer_1">
</g>
</svg>
