<?xml version="1.0" encoding="iso-8859-1"?>
<!-- Generator: Adobe Illustrator 25.2.3, SVG Export Plug-In . SVG Version: 6.00 Build 0)  -->
<svg version="1.1" xmlns="http://www.w3.org/2000/svg" xmlns:xlink="http://www.w3.org/1999/xlink" x="0px" y="0px"
	 viewBox="0 0 1000 1000" style="enable-background:new 0 0 1000 1000;" xml:space="preserve">
<g id="dollarSign">
	<g>
		<path d="M700.773,601.111c-10.105-35.015-25.159-66.405-44.741-93.302c-17.372-23.861-38.846-44.89-63.825-62.502
			c-43.895-30.951-92.05-47.019-130.744-59.93c-17.709-5.909-34.436-11.49-46.813-17.236c-9.525-4.421-13.34-7.495-14.64-8.738
			c-0.009-0.214-0.014-0.473-0.009-0.779c0.143-11.128,25.125-35.604,93.366-57.427c5.148-1.646,10.309-3.202,15.444-4.676
			c0.719-0.189,1.431-0.392,2.137-0.609c54.125-15.304,104.684-21.174,105.242-21.237v0c30.165-3.408,51.868-30.616,48.479-60.789
			c-3.389-30.186-30.618-51.904-60.793-48.52c-1.695,0.19-25.887,2.964-59.707,9.658c-5.105-54.496-10.591-96.697-16.87-130.166
			c-5.601-29.855-34.343-49.518-64.198-43.916c-29.855,5.601-49.517,34.343-43.916,64.198
			c6.269,33.415,11.931,79.259,17.198,139.371c-32.706,12.104-60.087,26.048-81.601,41.598
			c-52.846,38.195-64.392,81.5-64.772,111.103c-0.359,27.967,8.582,67.48,53.214,96.893c23.916,15.761,52.82,25.406,83.422,35.616
			c35.152,11.729,71.5,23.858,102.172,45.484c32.93,23.219,53.986,53.854,66.27,96.409c4.865,16.856,8.591,39.069-1.291,49.168
			c-12.452,12.727-51.851,24.129-125.081,17.964c-57.845-4.871-109.066-18.332-109.534-18.456
			c-29.349-7.834-59.49,9.609-67.322,38.957c-7.833,29.349,9.609,59.49,38.958,67.322c2.408,0.644,59.753,15.809,126.944,21.641
			c11.376,0.988,22.402,1.646,33.074,1.987c-4.973,42.327-12.126,92.096-20.184,119.048c-8.7,29.104,7.839,59.749,36.942,68.449
			c5.255,1.571,10.56,2.319,15.775,2.319c23.678,0,45.545-15.412,52.674-39.261c12.772-42.724,21.982-116.362,26.864-162.685
			c28.527-8.795,51.796-22.276,69.439-40.28C698.301,731.307,724.301,682.626,700.773,601.111z"/>
	</g>
</g>
<g id="Layer_1">
</g>
</svg>
