<?xml version="1.0" encoding="iso-8859-1"?>
<!-- Generator: Adobe Illustrator 25.2.3, SVG Export Plug-In . SVG Version: 6.00 Build 0)  -->
<svg version="1.1" xmlns="http://www.w3.org/2000/svg" xmlns:xlink="http://www.w3.org/1999/xlink" x="0px" y="0px"
	 viewBox="0 0 1000 1000" style="enable-background:new 0 0 1000 1000;" xml:space="preserve">
<g id="equalsSign">
	<g>
		<path d="M350.667,372.542c0.138,0,0.274,0,0.413,0c30.668,0,100.67-1.901,163.229-4.436
			c127.689-5.174,146.244-9.518,153.229-11.153c29.576-6.925,47.938-36.514,41.014-66.09c-6.904-29.486-36.339-47.825-65.821-41.076
			c-26.113,5.118-225.189,12.755-291.518,12.755c-0.17,0-0.351-0.003-0.515,0c-30.36,0-54.982,24.604-54.999,54.969
			C295.681,347.886,320.292,372.525,350.667,372.542z"/>
		<path d="M625.804,438.933c-4.298,1.197-31.911,7.363-153.823,11.185c-65.992,2.069-126.665,2.408-127.27,2.412
			c-30.375,0.16-54.87,24.913-54.71,55.288c0.159,30.278,24.75,54.711,54.993,54.711c0.096,0,0.198,0,0.294-0.001
			c0.617-0.003,62.522-0.348,129.917-2.457c126.883-3.972,163.564-10.562,180.118-15.173c29.262-8.151,46.374-38.48,38.223-67.742
			C685.395,447.893,655.063,430.779,625.804,438.933z"/>
	</g>
</g>
<g id="Layer_1">
</g>
</svg>
