<?xml version="1.0" encoding="iso-8859-1"?>
<!-- Generator: Adobe Illustrator 25.2.3, SVG Export Plug-In . SVG Version: 6.00 Build 0)  -->
<svg version="1.1" xmlns="http://www.w3.org/2000/svg" xmlns:xlink="http://www.w3.org/1999/xlink" x="0px" y="0px"
	 viewBox="0 0 1000 1000" style="enable-background:new 0 0 1000 1000;" xml:space="preserve">
<g id="exclamationMark">
	<g>
		<path style="fill:#010101;" d="M507,678.801c7.785-0.001,15.697-1.663,23.218-5.172c27.278-12.727,39.216-44.978,26.931-72.348
			c-1.738-4.955-13.627-45.693-26.707-261.246c-7.251-119.486-11.729-245.73-11.212-284.299
			c0.406-30.373-23.886-55.325-54.259-55.731c-30.353-0.386-55.325,23.886-55.731,54.259c-0.57,42.602,4.036,172.889,11.802,298.938
			c15.369,249.446,29.883,280.556,36.081,293.84C466.456,667.048,486.289,678.802,507,678.801z"/>
		<path style="fill:#010101;" d="M581.364,714.663c-17.021-25.159-51.214-31.756-76.373-14.736l-21.461,14.519
			c-25.159,17.021-31.757,51.214-14.736,76.373c10.631,15.715,27.959,24.188,45.604,24.188c10.604,0,21.324-3.062,30.769-9.451
			l21.461-14.519C591.787,774.016,598.385,739.822,581.364,714.663z"/>
	</g>
</g>
<g id="Layer_1">
</g>
</svg>
