<?xml version="1.0" encoding="iso-8859-1"?>
<!-- Generator: Adobe Illustrator 25.2.3, SVG Export Plug-In . SVG Version: 6.00 Build 0)  -->
<svg version="1.1" xmlns="http://www.w3.org/2000/svg" xmlns:xlink="http://www.w3.org/1999/xlink" x="0px" y="0px"
	 viewBox="0 0 1000 1000" style="enable-background:new 0 0 1000 1000;" xml:space="preserve">
<g id="graveAccent">
	<g>
		<path d="M587.928,158.306c-4.043-3.701-19.134-18.998-57.331-71.309c-23.738-32.51-44.115-62.549-44.318-62.849l0.001,0.002
			C469.243-0.998,435.044-7.572,409.897,9.467c-25.147,17.038-31.722,51.236-14.684,76.383c0.992,1.465,24.619,36.3,51.74,73.098
			c52.048,70.617,72.791,89.108,91.03,97.185c7.241,3.206,14.799,4.723,22.238,4.723c21.1,0,41.229-12.211,50.32-32.746
			C622.013,202.206,611.876,172.207,587.928,158.306z"/>
	</g>
</g>
<g id="Layer_1">
</g>
</svg>
