<?xml version="1.0" encoding="iso-8859-1"?>
<!-- Generator: Adobe Illustrator 25.2.3, SVG Export Plug-In . SVG Version: 6.00 Build 0)  -->
<svg version="1.1" xmlns="http://www.w3.org/2000/svg" xmlns:xlink="http://www.w3.org/1999/xlink" x="0px" y="0px"
	 viewBox="0 0 1000 1000" style="enable-background:new 0 0 1000 1000;" xml:space="preserve">
<g id="greaterThanSign">
	<g>
		<path d="M686.677,404.713c-49.722-35.031-99.715-62.334-148.062-88.739c-56.334-30.766-109.544-59.826-159.614-99.206
			c-23.877-18.779-58.454-14.646-77.232,9.23c-18.778,23.876-14.646,58.454,9.23,77.232
			c57.289,45.056,117.074,77.708,174.891,109.284c31.523,17.216,61.894,33.803,91.728,52.129
			c-17.749,23.246-37.306,46.091-57.554,69.745c-46.699,54.551-99.628,116.379-144.065,199.737
			c-14.29,26.805-4.144,60.118,22.661,74.407c8.242,4.394,17.095,6.478,25.826,6.477c19.663-0.002,38.686-10.575,48.582-29.138
			c38.769-72.724,85.433-127.233,130.56-179.948c35.602-41.589,69.229-80.87,98.063-127.178
			C717.103,453.991,710.517,421.509,686.677,404.713z"/>
	</g>
</g>
<g id="Layer_1">
</g>
</svg>
