<?xml version="1.0" encoding="iso-8859-1"?>
<!-- Generator: Adobe Illustrator 25.2.3, SVG Export Plug-In . SVG Version: 6.00 Build 0)  -->
<svg version="1.1" xmlns="http://www.w3.org/2000/svg" xmlns:xlink="http://www.w3.org/1999/xlink" x="0px" y="0px"
	 viewBox="0 0 1000 1000" style="enable-background:new 0 0 1000 1000;" xml:space="preserve">
<g id="latinCapitalLetterC">
	<g>
		<path d="M696.724,639.931c-19.79-23.041-54.514-25.68-77.559-5.889c-25.027,21.495-65.412,22.124-108.03,1.686
			c-31.458-15.087-59.736-39.986-79.625-70.111c-21.84-33.078-32.699-71.17-31.403-110.156
			c3.761-113.171,66.775-220.14,127.078-267.314c26.006-20.345,43.536-23.519,49.801-22.183
			c29.709,6.329,58.923-12.625,65.252-42.334c6.329-29.709-12.625-58.923-42.334-65.252c-43.894-9.349-92.475,5.565-140.495,43.13
			c-43.917,34.356-84.761,86.036-115.007,145.52c-33.198,65.289-51.951,136.101-54.234,204.78
			c-2.057,61.896,15.076,122.21,49.546,174.418c30.708,46.509,74.693,85.107,123.854,108.686
			c35.112,16.84,71.941,25.643,107.035,25.643c2.658,0,5.308-0.051,7.945-0.151c42.684-1.642,81.512-16.479,112.288-42.912
			C713.878,697.698,716.515,662.974,696.724,639.931z"/>
	</g>
</g>
<g id="Layer_1">
</g>
</svg>
