<?xml version="1.0" encoding="iso-8859-1"?>
<!-- Generator: Adobe Illustrator 25.2.3, SVG Export Plug-In . SVG Version: 6.00 Build 0)  -->
<svg version="1.1" xmlns="http://www.w3.org/2000/svg" xmlns:xlink="http://www.w3.org/1999/xlink" x="0px" y="0px"
	 viewBox="0 0 1000 1000" style="enable-background:new 0 0 1000 1000;" xml:space="preserve">
<g id="latinCapitalLetterT">
	<g>
		<path d="M709.042,79.903c-5.646-29.845-34.416-49.464-64.266-43.818c-110.285,20.863-206.98,27.108-295.61,19.095
			c-30.251-2.747-56.994,19.571-59.729,49.823c-2.736,30.252,19.571,56.994,49.823,59.729c28.133,2.544,56.876,3.82,86.397,3.82
			c20.176,0,40.725-0.618,61.662-1.814c15.921,197.596,17.973,372.615,6.288,533.985c-2.194,30.297,20.588,56.636,50.884,58.829
			c1.352,0.098,2.695,0.146,4.03,0.146c28.568,0,52.703-22.085,54.799-51.029c12.139-167.644,10-348.902-6.547-553.089
			c22.335-3.211,45.126-7,68.45-11.413C695.07,138.522,714.688,109.75,709.042,79.903z"/>
	</g>
</g>
<g id="Layer_1">
</g>
</svg>
