<?xml version="1.0" encoding="iso-8859-1"?>
<!-- Generator: Adobe Illustrator 25.2.3, SVG Export Plug-In . SVG Version: 6.00 Build 0)  -->
<svg version="1.1" xmlns="http://www.w3.org/2000/svg" xmlns:xlink="http://www.w3.org/1999/xlink" x="0px" y="0px"
	 viewBox="0 0 1000 1000" style="enable-background:new 0 0 1000 1000;" xml:space="preserve">
<g id="latinSmallLetterD">
	<g>
		<path style="fill:#010101;" d="M645.89,194.268C628.898,141.033,607.751,74.78,607.091,53.31
			c-0.934-30.361-26.337-54.193-56.664-53.284c-30.361,0.934-54.217,26.303-53.284,56.665
			c1.079,35.083,17.406,87.845,43.956,171.025c3.774,11.827,7.683,24.072,11.606,36.525c-29.492-6.666-61.955-6.853-94.337,0.492
			c-1.975,0.448-3.924,1.005-5.838,1.668c-45.589,15.792-86.459,48.047-115.081,90.82C306.408,403.611,290,461.469,290,524.537
			c0,71.01,18.697,130.928,54.07,173.275c35.414,42.397,86.269,65.744,143.212,65.742c0.608,0.047,1.24-0.01,1.855-0.03
			c62.686-2.093,118.892-30.59,158.264-80.241c20.611-25.992,36.392-57.421,46.903-93.413
			c10.665-36.519,15.942-78.018,15.686-123.354C710.117,395.489,675.997,288.594,645.89,194.268z M561.212,614.936
			c-23.968,30.225-53.74,37.729-74.826,38.615c-24.041-0.214-43.517-9.045-57.893-26.256C409.853,604.979,400,569.445,400,524.537
			c0-41.213,9.983-77.917,28.871-106.144c14.755-22.052,34.857-38.654,56.857-47.032c39.833-7.96,67.906,7.646,74.248,18.109
			c7.859,12.97,20.225,21.533,33.871,24.897c3.89,19.961,6.186,37.754,6.144,52.079c0,0.165,0,0.33,0.001,0.495
			C600.383,531.272,586.974,582.448,561.212,614.936z"/>
	</g>
</g>
<g id="Layer_1">
</g>
</svg>
