<?xml version="1.0" encoding="iso-8859-1"?>
<!-- Generator: Adobe Illustrator 25.2.3, SVG Export Plug-In . SVG Version: 6.00 Build 0)  -->
<svg version="1.1" xmlns="http://www.w3.org/2000/svg" xmlns:xlink="http://www.w3.org/1999/xlink" x="0px" y="0px"
	 viewBox="0 0 1000 1000" style="enable-background:new 0 0 1000 1000;" xml:space="preserve">
<g id="latinCapitalLetterK">
	<g>
		<path d="M705.527,684.259c-48.051-111.76-110.35-194.466-193.73-256.279c66.034-102.219,131.491-205.899,161.967-288.333
			c10.533-28.491-4.023-60.126-32.515-70.66c-28.494-10.532-60.127,4.024-70.66,32.515c-24.083,65.142-77.534,152.157-134.26,240.51
			C419.477,245.806,400,133.507,400,110.699c0-30.375-24.625-55-55-55s-55,24.625-55,55c0,32.054,14.708,117.526,40.703,265.836
			c19.902,113.546,42.459,242.243,50.823,316.098c3.181,28.08,26.978,48.815,54.583,48.815c2.066,0,4.156-0.116,6.258-0.354
			c30.183-3.418,51.879-30.657,48.461-60.84c-4.328-38.216-12.12-89.498-21.333-145.506
			c56.265,47.919,99.207,109.762,134.979,192.96c8.953,20.825,29.237,33.291,50.554,33.289c7.247,0,14.618-1.441,21.698-4.486
			C704.63,744.513,717.525,712.165,705.527,684.259z"/>
	</g>
</g>
<g id="Layer_1">
</g>
</svg>
