<?xml version="1.0" encoding="iso-8859-1"?>
<!-- Generator: Adobe Illustrator 25.2.3, SVG Export Plug-In . SVG Version: 6.00 Build 0)  -->
<svg version="1.1" xmlns="http://www.w3.org/2000/svg" xmlns:xlink="http://www.w3.org/1999/xlink" x="0px" y="0px"
	 viewBox="0 0 1000 1000" style="enable-background:new 0 0 1000 1000;" xml:space="preserve">
<g id="latinCapitalLetterQ">
	<g>
		<path d="M610.522,884.189c-2.112-2.377-4.658-5.462-7.654-9.445c-8.914-11.854-18.259-26.78-28.151-42.582l-1.621-2.589
			c-15.337-24.488-32.462-39.753-48.953-49.12c62.522-24.648,112.192-82.829,144.351-169.513
			c30.312-81.704,44.484-186.889,40.985-304.183c-0.06-1.978-0.225-3.952-0.496-5.912c-8.463-61.043-20.451-107.431-36.652-141.815
			c-19.626-41.651-46.737-67.618-80.582-77.178c-32.353-9.138-63.488-1.675-92.573,14.775c-2.992-11.34-9.618-21.812-19.631-29.518
			c-24.074-18.524-58.606-14.026-77.13,10.047c-33.591,43.654-60.423,101.209-79.751,171.067
			c-17.695,63.955-28.406,135.263-31.834,211.944c-0.003,0.072-0.006,0.145-0.01,0.217c-2.426,59.524,0.444,108.872,8.776,150.864
			c8.317,41.915,21.875,75.465,41.449,102.567c18.639,25.807,42.665,45.182,71.411,57.585c4.433,1.913,9.001,3.658,13.701,5.255
			c-16.679,7.529-32.85,19.212-48.368,34.984c-24.155,24.55-46.675,58.609-68.846,104.123c-13.302,27.309-1.948,60.229,25.36,73.531
			c27.309,13.305,60.229,1.949,73.532-25.359c33.269-68.298,56.906-83.722,63.268-86.807c1.895,1.591,5.063,4.915,8.77,10.833
			l1.609,2.57c31.609,50.489,64.294,102.698,118.936,108.905c3.081,0.351,6.4,0.562,9.922,0.562
			c19.682,0,45.684-6.612,71.734-32.654c21.483-21.476,21.489-56.299,0.014-77.781C662.578,870.049,632.054,868.258,610.522,884.189
			z M400.723,465.006c2.948-65.825,12.229-129.152,26.87-183.465c19.142,3.68,39.647-2.961,52.901-19.075
			c50.394-61.268,74.629-72.145,81.335-74.068c5.348,5.432,24.458,30.786,37.784,124.617c2.767,102.037-9.063,191.774-34.25,259.664
			c-11.756,31.688-25.988,57.266-42.3,76.021c-11.831,13.604-24.597,23.299-38.049,28.914
			c-27.007-3.328-42.831-11.638-54.795-28.203C401.283,609.346,398.203,527.049,400.723,465.006z"/>
	</g>
</g>
<g id="Layer_1">
</g>
</svg>
