<?xml version="1.0" encoding="iso-8859-1"?>
<!-- Generator: Adobe Illustrator 25.2.3, SVG Export Plug-In . SVG Version: 6.00 Build 0)  -->
<svg version="1.1" xmlns="http://www.w3.org/2000/svg" xmlns:xlink="http://www.w3.org/1999/xlink" x="0px" y="0px"
	 viewBox="0 0 1000 1000" style="enable-background:new 0 0 1000 1000;" xml:space="preserve">
<g id="latinCapitalLetterJ">
	<g>
		<path d="M708.621,42.763c-6.758-29.614-36.237-48.145-65.858-41.384c-14.501,3.309-29.332,6.751-43.675,10.081
			c-51.729,12.007-105.22,24.422-150.332,32.211c-56.233,9.708-81.981,9.147-93.678,6.967
			c-29.864-5.567-58.581,14.129-64.147,43.991s14.129,58.581,43.991,64.147c11.358,2.117,24,3.187,38.421,3.187
			c19.182,0,41.517-1.902,68.099-5.749c38.382,88.524,67.866,241.519,83.414,363.025c4.761,37.197,5.723,69.628,2.783,93.785
			c-2.827,23.237-8.604,33.13-10.707,35.144c-0.975,0.217-5.243,0.857-14.548-1.535c-1.146-0.295-2.3-0.552-3.462-0.772
			l-95.156-18.026c-29.851-5.654-58.623,13.957-64.276,43.802c-5.654,29.845,13.957,58.622,43.802,64.276l93.558,17.724
			c13.646,3.361,26.107,4.806,37.455,4.806c35.254-0.001,59.72-13.944,75.241-27.646c44.305-39.107,58.835-112.875,44.42-225.52
			c-9.791-76.517-35.66-248.931-82.37-370.135c23.961-5.298,48.343-10.955,72.361-16.53c14.246-3.306,28.977-6.726,43.279-9.989
			C696.852,101.863,715.38,72.377,708.621,42.763z"/>
	</g>
</g>
<g id="Layer_1">
</g>
</svg>
