<?xml version="1.0" encoding="iso-8859-1"?>
<!-- Generator: Adobe Illustrator 25.2.3, SVG Export Plug-In . SVG Version: 6.00 Build 0)  -->
<svg version="1.1" xmlns="http://www.w3.org/2000/svg" xmlns:xlink="http://www.w3.org/1999/xlink" x="0px" y="0px"
	 viewBox="0 0 1000 1000" style="enable-background:new 0 0 1000 1000;" xml:space="preserve">
<g id="latinSmallLetterB">
	<g>
		<path style="fill:#010101;" d="M701.49,465.092c-10.22-55.504-38.539-107.332-79.742-145.938
			c-41.82-39.184-93.189-61.632-144.645-63.209c-0.512-0.016-1.024-0.024-1.536-0.026c-0.094,0-0.185,0-0.278,0
			c-11.733,0-25.856,2.007-41.024,8.415c-9.705-70.646-21.164-143.368-35.178-219.315c-5.512-29.872-34.195-49.616-64.067-44.106
			c-29.871,5.512-49.618,34.196-44.106,64.067c20.6,111.638,35.61,216.505,47.603,318.185c-5.71,15.138-10.725,31.341-14.946,48.392
			c-6.13,24.764,5.58,49.758,26.955,61.454c3.884,38.251,7.464,76.227,10.879,114.123c-11.146,4.094-21.059,11.796-27.786,22.678
			c-15.974,25.836-7.979,59.73,17.858,75.704c15.841,9.794,31.424,18.301,46.786,25.55c1.034,0.527,2.09,1.014,3.159,1.476
			c43.098,19.889,84.446,29.764,124.746,29.763c18.083-0.001,35.964-1.988,53.688-5.949c4.773-1.066,9.385-2.766,13.709-5.052
			c54.058-28.577,89.75-70.882,106.088-125.741C712.738,581.62,713.337,529.114,701.49,465.092z M594.227,594.166
			c-7.173,24.084-21.729,42.107-45.56,56.245c-23.196,3.884-47.389,1.708-73.595-6.78c-7.045-80.663-14.565-161.345-23.918-244.008
			c2.122-4.203,4.313-8.171,6.571-11.855c9.487-15.473,16.593-20.458,18.82-21.738c23.541,1.56,48.888,13.62,69.994,33.395
			c24.168,22.645,40.778,53.039,46.779,85.633C601.931,531.609,602.229,567.299,594.227,594.166z"/>
	</g>
</g>
<g id="Layer_1">
</g>
</svg>
