<?xml version="1.0" encoding="iso-8859-1"?>
<!-- Generator: Adobe Illustrator 25.2.3, SVG Export Plug-In . SVG Version: 6.00 Build 0)  -->
<svg version="1.1" xmlns="http://www.w3.org/2000/svg" xmlns:xlink="http://www.w3.org/1999/xlink" x="0px" y="0px"
	 viewBox="0 0 1000 1000" style="enable-background:new 0 0 1000 1000;" xml:space="preserve">
<g id="latinSmallLetterF">
	<g>
		<path d="M655,319.284c-42.751,0-92.592,4.016-143.081,11.046c-10.886-48.419-17.835-91.914-20.332-127.744
			c-4.317-61.941,5.989-81.67,7.998-84.861c12.239-7.164,20.574-8.521,24.347-7.356c3.511,1.086,9.618,6.77,15.282,19.216
			c12.581,27.647,45.192,39.862,72.84,27.282c27.648-12.581,39.862-45.193,27.281-72.841
			c-23.242-51.079-57.909-71.015-82.897-78.744c-25.2-7.794-65.61-10.815-115.018,19.056c-28.363,17.148-47.02,46.963-55.452,88.618
			c-8.126,40.141-7.056,94.263,3.18,160.861c3.652,23.762,8.52,49.346,14.463,76.161c-26.648,6.031-52.062,12.763-75.136,20.032
			c-28.973,9.126-45.061,40.011-35.935,68.984c7.395,23.474,29.072,38.49,52.444,38.49c5.474,0,11.042-0.824,16.54-2.556
			c21.101-6.647,44.696-12.835,69.564-18.376c0.028,0.095,0.054,0.189,0.082,0.283c35.515,121.714,82.223,236.918,113.584,280.156
			c10.76,14.834,27.544,22.711,44.566,22.711c11.195,0,22.493-3.407,32.248-10.482c24.589-17.835,30.063-52.227,12.229-76.814
			c-18.195-25.084-58.93-118.574-93.645-234.858c40.954-5.261,80.818-8.263,114.848-8.263c30.376,0,55-24.624,55-55
			C710,343.908,685.376,319.284,655,319.284z"/>
	</g>
</g>
<g id="Layer_1">
</g>
</svg>
