<?xml version="1.0" encoding="iso-8859-1"?>
<!-- Generator: Adobe Illustrator 25.2.3, SVG Export Plug-In . SVG Version: 6.00 Build 0)  -->
<svg version="1.1" xmlns="http://www.w3.org/2000/svg" xmlns:xlink="http://www.w3.org/1999/xlink" x="0px" y="0px"
	 viewBox="0 0 1000 1000" style="enable-background:new 0 0 1000 1000;" xml:space="preserve">
<g id="latinSmallLetterP">
	<g>
		<path style="fill:#010101;" d="M657.156,353.965c-20.993-25.327-47.712-46.095-79.414-61.728
			c-31.02-15.296-66.893-25.658-106.622-30.799c-27.784-3.594-55.3,0.371-80.444,11.482c-12.171-18.134-34.546-28.002-57.203-23.143
			c-29.701,6.366-48.618,35.604-42.252,65.305c25.926,120.958,27.487,305.896,29.139,501.693
			c0.356,42.155,0.724,85.747,1.344,129.013c0.432,30.106,24.968,54.212,54.979,54.212c0.266,0,0.538-0.002,0.805-0.006
			c30.373-0.436,54.641-25.41,54.206-55.782c-0.615-42.942-0.982-86.368-1.336-128.365c-0.201-23.818-0.401-47.477-0.644-70.904
			c19.177,6.95,41.409,11.81,68.465,15.106c4.742,0.638,9.526,0.954,14.356,0.953c30.521-0.001,62.624-12.657,93.725-37.113
			c25.873-20.347,49.02-47.38,66.936-78.179c19.543-33.595,31.729-70.088,35.24-105.534
			C715.634,467.516,697.902,403.125,657.156,353.965z M598.97,529.33c-2.963,29.912-17.632,62.101-40.245,88.312
			c-21.286,24.675-40.504,33.165-46.254,33.338c-0.218-0.029-0.436-0.057-0.653-0.083c-59.331-7.18-69.641-20.845-84.104-46.391
			c-0.139-0.245-0.29-0.478-0.432-0.72c-2.059-75.145-5.663-145.734-12.537-208.716c1.462-2.305,2.773-4.746,3.909-7.319
			c3.23-7.318,17.793-19.889,38.353-17.222C528.036,379.72,610.325,414.731,598.97,529.33z"/>
	</g>
</g>
<g id="Layer_1">
</g>
</svg>
