<?xml version="1.0" encoding="iso-8859-1"?>
<!-- Generator: Adobe Illustrator 25.2.3, SVG Export Plug-In . SVG Version: 6.00 Build 0)  -->
<svg version="1.1" xmlns="http://www.w3.org/2000/svg" xmlns:xlink="http://www.w3.org/1999/xlink" x="0px" y="0px"
	 viewBox="0 0 1000 1000" style="enable-background:new 0 0 1000 1000;" xml:space="preserve">
<g id="latinSmallLetterZ">
	<g>
		<path style="fill:#010101;" d="M642.289,417.198c38.7-53,59.198-91.596,66.465-125.142c4.393-20.28-3.003-41.305-19.122-54.371
			c-16.12-13.065-38.224-15.948-57.152-7.45c-100.577,45.141-156.476,39.387-267.841,27.924c-4.604-0.474-9.286-0.956-14.052-1.442
			c-30.222-3.094-57.216,18.91-60.302,49.129c-3.085,30.219,18.911,57.217,49.129,60.302c4.736,0.484,9.388,0.962,13.962,1.434
			c69.487,7.152,125.142,12.879,185.034,4.825c-25.73,33.574-56.289,70.058-86.007,105.538
			c-68.021,81.208-132.269,157.913-156.267,217.569c-7.546,18.76-4.191,40.146,8.738,55.693s33.345,22.747,53.167,18.746
			c156.776-31.633,201.909-16.838,238.771,25.947c10.878,12.626,26.239,19.103,41.692,19.102c12.713,0,25.488-4.384,35.875-13.333
			c23.013-19.827,25.596-54.555,5.769-77.567c-38.765-44.994-86.475-70.645-145.856-78.416c-22.579-2.955-47.168-3.542-75.694-1.602
			c24.084-30.981,51.914-64.206,78.131-95.507C573.644,504.506,611.814,458.935,642.289,417.198z"/>
	</g>
</g>
<g id="Layer_1">
</g>
</svg>
