<?xml version="1.0" encoding="iso-8859-1"?>
<!-- Generator: Adobe Illustrator 25.2.3, SVG Export Plug-In . SVG Version: 6.00 Build 0)  -->
<svg version="1.1" xmlns="http://www.w3.org/2000/svg" xmlns:xlink="http://www.w3.org/1999/xlink" x="0px" y="0px"
	 viewBox="0 0 1000 1000" style="enable-background:new 0 0 1000 1000;" xml:space="preserve">
<g id="latinSmallLetterY">
	<g>
		<path style="fill:#010101;" d="M706.05,590.327c2.859-79.031,5.56-153.681,2.774-210.987
			c-1.376-28.305-24.033-50.931-52.34-52.269c-28.309-1.326-52.995,19.053-57.034,47.101
			c-12.057,83.737-24.862,162.846-48.809,210.493c-9.323,18.55-19.702,31.151-31.729,38.523
			c-12.688,7.778-29.333,10.995-50.88,9.835c-9.791-0.526-22.745-3.722-36.128-23.917c-18.556-28.004-30.115-77.104-31.713-134.713
			c-1.429-51.503,5.559-106.685,17.802-140.583c10.318-28.569-4.477-60.094-33.046-70.413
			c-28.569-10.319-60.094,4.478-70.413,33.046c-31.975,88.533-41.231,272.455,25.675,373.424
			c29.865,45.069,72.021,70.311,121.91,72.997c4.767,0.256,9.454,0.385,14.08,0.384c45.694-0.002,84.516-12.521,116.161-37.388
			c-1.899,84.956-1.382,171.058,7.17,245.422c3.225,28.044,27.006,48.724,54.571,48.722c2.097,0,4.219-0.12,6.352-0.365
			c30.177-3.47,51.827-30.746,48.356-60.923C697.123,837.092,701.865,705.993,706.05,590.327z"/>
	</g>
</g>
<g id="Layer_1">
</g>
</svg>
