<?xml version="1.0" encoding="iso-8859-1"?>
<!-- Generator: Adobe Illustrator 25.2.3, SVG Export Plug-In . SVG Version: 6.00 Build 0)  -->
<svg version="1.1" xmlns="http://www.w3.org/2000/svg" xmlns:xlink="http://www.w3.org/1999/xlink" x="0px" y="0px"
	 viewBox="0 0 1000 1000" style="enable-background:new 0 0 1000 1000;" xml:space="preserve">
<g id="latinCapitalLetterI">
	<g>
		<path d="M655.009,649.016c-0.139,0-0.278,0.001-0.417,0.002c-31.497,0.234-64.555,0.482-100.443,1.458
			c3.859-190.922,3.85-344.012-0.031-475.085c23.907-2.118,48.872-4.45,74.631-6.858l19.123-1.786
			c30.244-2.818,52.478-29.621,49.659-59.866c-2.817-30.245-29.623-52.477-59.865-49.66l-19.153,1.788
			c-105.047,9.818-204.268,19.093-253.906,15.099c-30.27-2.432-56.797,20.135-59.233,50.413
			c-2.436,30.278,20.135,56.797,50.413,59.233c10.953,0.881,23.271,1.282,36.805,1.282c15.684,0,33.012-0.542,51.716-1.495
			c3.732,129.858,3.636,282.049-0.291,472.244c-32.49,2.294-67.357,5.414-105.19,9.688c-30.184,3.409-51.889,30.642-48.479,60.825
			c3.172,28.088,26.972,48.832,54.584,48.832c2.061,0,4.145-0.115,6.241-0.353c127.971-14.455,221.615-15.15,304.235-15.765
			c30.375-0.226,54.816-25.031,54.591-55.406C709.774,673.371,685.193,649.016,655.009,649.016z"/>
	</g>
</g>
<g id="Layer_1">
</g>
</svg>
