<?xml version="1.0" encoding="iso-8859-1"?>
<!-- Generator: Adobe Illustrator 25.2.3, SVG Export Plug-In . SVG Version: 6.00 Build 0)  -->
<svg version="1.1" xmlns="http://www.w3.org/2000/svg" xmlns:xlink="http://www.w3.org/1999/xlink" x="0px" y="0px"
	 viewBox="0 0 1000 1000" style="enable-background:new 0 0 1000 1000;" xml:space="preserve">
<g id="latinSmallLetterV">
	<g>
		<path style="fill:#010101;" d="M655,260.127c-30.376,0-55,24.625-55,55c0,30.939-2.169,112.049-22.255,196.792
			c-9.676,40.817-21.824,75.282-35.962,102.376c-13.238-20.281-30.864-48.814-53.924-88.749
			c-41.011-71.021-77.811-141.25-92.968-173.915c-12.786-27.554-45.486-39.528-73.04-26.742
			c-27.554,12.785-39.527,45.486-26.742,73.04c19.294,41.583,61.071,119.729,99.336,185.814
			c78.77,136.038,103.644,156.151,113.008,163.723c10.105,8.171,22.351,12.231,34.576,12.231c13.082,0,26.143-4.649,36.537-13.886
			c47.734-42.414,83.469-112.571,106.213-208.521C700.808,469.668,710,388.693,710,315.127C710,284.751,685.376,260.127,655,260.127
			z"/>
	</g>
</g>
<g id="Layer_1">
</g>
</svg>
