<?xml version="1.0" encoding="iso-8859-1"?>
<!-- Generator: Adobe Illustrator 25.2.3, SVG Export Plug-In . SVG Version: 6.00 Build 0)  -->
<svg version="1.1" xmlns="http://www.w3.org/2000/svg" xmlns:xlink="http://www.w3.org/1999/xlink" x="0px" y="0px"
	 viewBox="0 0 1000 1000" style="enable-background:new 0 0 1000 1000;" xml:space="preserve">
<g id="latinSmallLetterH">
	<g>
		<path d="M690.33,492.896c-18.497-97.079-48.289-162.172-91.078-199c-31.294-26.933-69.054-37.972-109.204-31.927
			c-28.31,4.264-48.348,20.704-62.179,38.802c-14.17-102.745-28.026-205.307-27.868-245.556C400.121,24.841,375.593,0.12,345.218,0
			c-0.074,0-0.147,0-0.221,0c-30.274,0-54.876,24.482-54.995,54.784c-0.198,50.29,14.396,155.983,31.293,278.364
			c19.442,140.813,41.479,300.415,39.191,370.062c-0.98,29.84,22.024,55.013,51.832,56.716c1.068,0.062,2.128,0.092,3.185,0.092
			c28.434-0.002,52.433-21.842,54.771-50.533c2.014-24.7,3.641-51.669,5.363-80.221c3.413-56.591,7.282-120.731,14.973-172.945
			c8.212-55.758,18.041-78.006,22.677-85.883c4.459,0.41,8.893,2.259,14.208,6.833c10.367,8.922,36.457,40.056,54.778,136.215
			C597.697,594.431,600,680.919,600,725.269c0,30.376,24.624,55,55,55s55-24.624,55-55C710,612.908,697.676,531.451,690.33,492.896z
			"/>
	</g>
</g>
<g id="Layer_1">
</g>
</svg>
