<?xml version="1.0" encoding="iso-8859-1"?>
<!-- Generator: Adobe Illustrator 25.2.3, SVG Export Plug-In . SVG Version: 6.00 Build 0)  -->
<svg version="1.1" xmlns="http://www.w3.org/2000/svg" xmlns:xlink="http://www.w3.org/1999/xlink" x="0px" y="0px"
	 viewBox="0 0 1000 1000" style="enable-background:new 0 0 1000 1000;" xml:space="preserve">
<g id="latinCapitalLetterV">
	<g>
		<path d="M655,55.699c-30.376,0-55,24.625-55,55c0,40.768-18.521,158.508-48.337,307.273
			c-8.862,44.217-17.541,85.332-25.474,121.429c-37.055-99.752-62.22-205.703-82.375-290.557
			c-22.875-96.304-34.746-143.79-54.465-170.674c-17.966-24.494-52.387-29.785-76.878-11.82
			c-24.332,17.847-29.714,51.933-12.171,76.394c1.062,1.817,5.577,10.623,14.021,41.031c6.756,24.327,14.039,54.988,22.471,90.49
			C368.3,406.913,411.451,588.581,494.061,732.13c9.858,17.131,28.084,27.568,47.658,27.567c1.261,0,2.529-0.043,3.8-0.131
			c20.988-1.449,39.312-14.744,47.2-34.248c13.801-34.125,47.362-188.84,66.554-284.506C678.218,346.373,710,177.904,710,110.699
			C710,80.323,685.376,55.699,655,55.699z"/>
	</g>
</g>
<g id="Layer_1">
</g>
</svg>
