<?xml version="1.0" encoding="iso-8859-1"?>
<!-- Generator: Adobe Illustrator 25.2.3, SVG Export Plug-In . SVG Version: 6.00 Build 0)  -->
<svg version="1.1" xmlns="http://www.w3.org/2000/svg" xmlns:xlink="http://www.w3.org/1999/xlink" x="0px" y="0px"
	 viewBox="0 0 1000 1000" style="enable-background:new 0 0 1000 1000;" xml:space="preserve">
<g id="latinCapitalLetterM">
	<g>
		<path d="M708.423,681.605c-7.226-29.525-14.632-107.536-22.473-190.127c-7.293-76.825-15.56-163.899-25.941-236.719
			c-13.759-96.5-27.729-147.279-48.223-175.267c-12.512-17.089-33.724-25.474-54.539-21.561
			c-20.814,3.914-37.533,19.431-42.984,39.897c-7.987,29.988-15.699,66.448-23.731,105.368
			c-11.445-49.438-25.653-90.729-50.111-117.761c-14.238-15.736-36.257-21.878-56.586-15.78
			c-20.327,6.097-35.333,23.345-38.559,44.32c-7.214,46.904-11.421,124.998-16.292,215.422
			c-7.102,131.832-15.939,295.901-36.374,359.844c-9.247,28.934,6.713,59.886,35.647,69.132c5.568,1.779,11.207,2.625,16.756,2.625
			c23.283,0,44.909-14.906,52.376-38.272c18.604-58.216,28.019-161.809,35.036-274.432c1.12,3.313,2.27,6.588,3.451,9.816
			c7.779,21.265,27.795,35.589,50.433,36.091c22.631,0.497,43.269-12.92,51.984-33.819c9.541-22.884,18.092-50.719,26.024-81.257
			c4.39,41.264,8.39,83.399,12.126,122.749c8.94,94.184,16.003,168.576,25.134,205.882c6.146,25.114,28.627,41.939,53.379,41.938
			c4.327,0,8.729-0.515,13.119-1.59C697.58,740.883,715.645,711.11,708.423,681.605z"/>
	</g>
</g>
<g id="Layer_1">
</g>
</svg>
