<?xml version="1.0" encoding="iso-8859-1"?>
<!-- Generator: Adobe Illustrator 25.2.3, SVG Export Plug-In . SVG Version: 6.00 Build 0)  -->
<svg version="1.1" xmlns="http://www.w3.org/2000/svg" xmlns:xlink="http://www.w3.org/1999/xlink" x="0px" y="0px"
	 viewBox="0 0 1000 1000" style="enable-background:new 0 0 1000 1000;" xml:space="preserve">
<g id="latinSmallLetterJ">
	<g>
		<path d="M653.68,934.695c-6.668-155.543-45.266-324.176-76.279-459.675c-20.38-89.04-37.98-165.938-42.844-219.953
			c-2.725-30.253-29.454-52.576-59.711-49.846c-30.253,2.724-52.57,29.458-49.846,59.711
			c5.532,61.433,23.902,141.695,45.174,234.631c27.968,122.192,59.241,258.814,70.359,389.548
			c-18.516,1.383-34.515,1.188-48.312-0.567c-12.612-1.604-23.064-4.587-30.225-8.628c-6.745-3.807-9.228-7.736-10.767-11.078
			c-12.706-27.592-45.373-39.661-72.962-26.954c-27.591,12.705-39.659,45.371-26.954,72.962
			c14.874,32.303,48.986,72.893,127.028,82.819c12.173,1.549,25.127,2.325,38.963,2.325c26.729,0,56.744-2.899,90.73-8.731
			C635.314,986.576,654.865,962.35,653.68,934.695z"/>
		<path d="M429.133,104.133c8.438,21.803,29.25,35.163,51.305,35.163c6.601,0,13.313-1.197,19.839-3.722
			c28.328-10.963,42.404-42.816,31.441-71.144l-11.333-29.281C509.422,6.821,477.57-7.258,449.242,3.708
			c-28.328,10.963-42.404,42.816-31.441,71.144L429.133,104.133z"/>
	</g>
</g>
<g id="Layer_1">
</g>
</svg>
