<?xml version="1.0" encoding="iso-8859-1"?>
<!-- Generator: Adobe Illustrator 25.2.3, SVG Export Plug-In . SVG Version: 6.00 Build 0)  -->
<svg version="1.1" xmlns="http://www.w3.org/2000/svg" xmlns:xlink="http://www.w3.org/1999/xlink" x="0px" y="0px"
	 viewBox="0 0 1000 1000" style="enable-background:new 0 0 1000 1000;" xml:space="preserve">
<g id="latinCapitalLetterP">
	<g>
		<path d="M698.863,185.792c-11-32.788-29.637-61.835-53.896-84.003c-23.032-21.046-50.324-35.498-81.119-42.953
			c-32.302-7.821-67.594-7.602-104.811,0.627c-64.007,14.044-109.813,44.795-136.147,91.4
			c-21.957,38.859-26.324,81.532-29.834,115.82c-0.833,8.138-1.62,15.825-2.573,22.977c-0.333,2.498-0.495,5.015-0.482,7.534
			c0.496,103.486,24.474,287.859,54.59,419.746c5.821,25.494,28.482,42.768,53.57,42.768c4.053,0,8.174-0.451,12.293-1.392
			c29.613-6.763,48.138-36.251,41.375-65.864c-18.411-80.627-32.688-171.689-41.555-250.597c7.716,1.523,15.719,3.277,23.987,5.088
			c45.904,10.058,97.931,21.458,149.249,3.342c59.661-21.062,100.082-74.992,123.57-164.87c0.594-2.272,1.041-4.579,1.34-6.908
			C712.32,248.113,709.016,216.052,698.863,185.792z M599.656,261.353c-13.265,48.871-31.008,77.528-52.765,85.208
			c-21.763,7.685-54.465,0.519-89.085-7.067c-15.504-3.397-31.535-6.91-47.83-9.349c-2.761-0.413-5.5-0.613-8.211-0.613
			c-0.288,0-0.574,0.002-0.861,0.007c-0.486-10.569-0.781-20.372-0.876-29.29c0.938-7.515,1.708-15.046,2.458-22.365
			c2.846-27.809,5.535-54.076,16.175-72.907c6.656-11.779,20.526-28.541,64.04-38.088c37.634-8.322,67.263-2.904,88.064,16.104
			C593.872,204.108,601.817,236.921,599.656,261.353z"/>
	</g>
</g>
<g id="Layer_1">
</g>
</svg>
