<?xml version="1.0" encoding="iso-8859-1"?>
<!-- Generator: Adobe Illustrator 25.2.3, SVG Export Plug-In . SVG Version: 6.00 Build 0)  -->
<svg version="1.1" xmlns="http://www.w3.org/2000/svg" xmlns:xlink="http://www.w3.org/1999/xlink" x="0px" y="0px"
	 viewBox="0 0 1000 1000" style="enable-background:new 0 0 1000 1000;" xml:space="preserve">
<g id="latinSmallLetterQ">
	<g>
		<path style="fill:#010101;" d="M704.148,920.314c-25.195-50.164-28.823-158.984-29.184-273.887
			c10.462-27.468,15.996-57.853,15.996-89.231c0-25.533-6.446-64.049-13.91-108.648c-1.051-6.28-2.11-12.611-3.154-18.926
			c-1.062-42.474-3.069-84.379-6.807-124.713c-2.025-21.851-16.845-40.406-37.706-47.212c-11.062-3.608-22.697-3.548-33.354-0.243
			c-5.164-1.605-10.653-2.469-16.345-2.469c-55.644,0-124.563,36.038-184.361,96.401
			c-67.457,68.095-105.817,149.876-105.314,224.474c-0.453,51.117,16.508,95.523,49.068,128.455
			c22.463,22.721,51.689,39.593,86.864,50.149c26.697,8.013,56.939,12.247,87.458,12.247c18.648,0,36.617-3.038,53.522-8.915
			c3.551,87.213,13.209,160.68,38.93,211.89c9.656,19.225,29.052,30.328,49.192,30.326c8.297,0,16.724-1.885,24.643-5.862
			C706.83,980.516,717.782,947.458,704.148,920.314z M564.98,584.24c-0.025,12.955-0.05,25.776-0.054,38.433
			c-1.926,3.37-4.012,6.558-6.247,9.531c-12.224,16.262-27.458,24.507-45.281,24.507c-41.766,0-77.691-11.116-96.1-29.735
			c-7.582-7.668-17.623-21.239-17.291-50.435c0.004-0.381,0.004-0.762,0.001-1.143c-0.423-44.934,27.039-99.736,73.462-146.599
			c28.355-28.624,58.26-48.147,80.916-57.489c2.021,19.406,5.4,41.962,9.714,68.46C565.168,487.491,565.073,536.296,564.98,584.24z"
			/>
	</g>
</g>
<g id="Layer_1">
</g>
</svg>
