<?xml version="1.0" encoding="iso-8859-1"?>
<!-- Generator: Adobe Illustrator 25.2.3, SVG Export Plug-In . SVG Version: 6.00 Build 0)  -->
<svg version="1.1" xmlns="http://www.w3.org/2000/svg" xmlns:xlink="http://www.w3.org/1999/xlink" x="0px" y="0px"
	 viewBox="0 0 1000 1000" style="enable-background:new 0 0 1000 1000;" xml:space="preserve">
<g id="latinCapitalLetterO">
	<g>
		<path d="M709.841,380.227c-12.802-167.714-76.96-230.417-128.528-253.486c-22.834-10.214-47.896-14.578-73.66-12.959
			c0.797-14.21-3.888-28.718-14.218-40.081c-20.433-22.476-55.217-24.132-77.694-3.698
			C371.455,110.265,313.737,208.23,290.266,446.29c-0.182,1.84-0.27,3.688-0.266,5.537c0.267,104.642,19.286,181.116,58.146,233.791
			c36.971,50.114,90.546,77.181,159.236,80.447c0.872,0.041,1.742,0.062,2.612,0.062c9.312,0,18.489-2.365,26.659-6.893
			c47.487-26.316,95.91-59.6,128.397-124.384c28.792-57.415,42.651-134.315,44.938-249.344
			C710.024,383.745,709.975,381.983,709.841,380.227z M497.72,654.826c-27.329-3.84-46.505-14.789-61.056-34.512
			c-23.847-32.325-36.175-88.172-36.653-166.018c8.215-81.866,21.019-146.071,35.52-194.437c6.785-1.807,13.339-4.951,19.262-9.485
			c14.807-11.334,52.4-36.288,81.601-23.224c16.998,7.604,29.067,26.543,36.198,41.093c14.196,28.965,23.398,68.57,27.362,117.75
			C595.841,575.998,558.586,618.884,497.72,654.826z"/>
	</g>
</g>
<g id="Layer_1">
</g>
</svg>
