<?xml version="1.0" encoding="iso-8859-1"?>
<!-- Generator: Adobe Illustrator 25.2.3, SVG Export Plug-In . SVG Version: 6.00 Build 0)  -->
<svg version="1.1" xmlns="http://www.w3.org/2000/svg" xmlns:xlink="http://www.w3.org/1999/xlink" x="0px" y="0px"
	 viewBox="0 0 1000 1000" style="enable-background:new 0 0 1000 1000;" xml:space="preserve">
<g id="latinCapitalLetterX">
	<g>
		<path d="M699.125,634.064c-50.266-67.555-98.457-140.866-142.092-212.792c5.967-11.398,11.944-22.754,17.901-34.065
			c47.318-89.854,92.013-174.725,118.315-258.802c9.069-28.99-7.08-59.843-36.07-68.913c-28.986-9.069-59.844,7.08-68.912,36.07
			c-20.842,66.623-56.965,138.082-96.485,213.429c-39.565-71.082-72.794-136.583-96.898-188.499
			c-12.792-27.551-45.496-39.516-73.047-26.724c-27.551,12.792-39.515,45.496-26.724,73.047
			c31.94,68.792,79.348,160.614,136.21,258.164c-42.365,83.599-81.94,170.653-107.957,265.111
			c-8.066,29.285,9.135,59.564,38.42,67.631c4.889,1.347,9.8,1.988,14.636,1.988c24.134,0,46.274-16.012,52.994-40.408
			c17.322-62.891,41.997-123.596,69.766-182.735c35.33,55.642,72.909,111.04,111.691,163.161
			c10.795,14.509,27.375,22.171,44.168,22.171c11.415,0,22.928-3.54,32.79-10.878C712.202,692.889,717.258,658.434,699.125,634.064z
			"/>
	</g>
</g>
<g id="Layer_1">
</g>
</svg>
