<?xml version="1.0" encoding="iso-8859-1"?>
<!-- Generator: Adobe Illustrator 25.2.3, SVG Export Plug-In . SVG Version: 6.00 Build 0)  -->
<svg version="1.1" xmlns="http://www.w3.org/2000/svg" xmlns:xlink="http://www.w3.org/1999/xlink" x="0px" y="0px"
	 viewBox="0 0 1000 1000" style="enable-background:new 0 0 1000 1000;" xml:space="preserve">
<g id="latinSmallLetterC">
	<g>
		<path d="M656.553,609.24c-44.792-1.264-76.92,15.252-102.729,28.522c-26.372,13.561-43.792,22.519-76.532,17.838
			c-25.347-3.624-43.231-15.349-56.282-36.897c-13.548-22.37-21.01-55.116-21.01-92.206c0-22.776,5.643-47.876,15.89-70.677
			c10.948-24.362,26.64-45.267,45.379-60.454c32.892-26.657,73.721-35.057,121.352-24.974c29.722,6.291,58.908-12.698,65.199-42.415
			c6.292-29.717-12.697-58.908-42.414-65.2c-41.434-8.773-81.393-8.677-118.763,0.287c-34.713,8.325-66.552,24.085-94.633,46.843
			c-32.046,25.972-58.483,60.835-76.454,100.821C298.837,447.932,290,487.964,290,526.497c0,57.721,12.767,109.311,36.92,149.19
			c30.161,49.801,76.775,80.509,134.802,88.806c11.315,1.618,21.943,2.337,31.959,2.337c49.679-0.002,84.114-17.704,110.443-31.242
			c21.545-11.078,33.56-16.854,49.323-16.391c0.53,0.015,1.055,0.022,1.582,0.021c29.654-0.002,54.106-23.614,54.948-53.447
			C710.835,635.407,686.916,610.098,656.553,609.24z"/>
	</g>
</g>
<g id="Layer_1">
</g>
</svg>
