<?xml version="1.0" encoding="iso-8859-1"?>
<!-- Generator: Adobe Illustrator 25.2.3, SVG Export Plug-In . SVG Version: 6.00 Build 0)  -->
<svg version="1.1" xmlns="http://www.w3.org/2000/svg" xmlns:xlink="http://www.w3.org/1999/xlink" x="0px" y="0px"
	 viewBox="0 0 1000 1000" style="enable-background:new 0 0 1000 1000;" xml:space="preserve">
<g id="latinCapitalLetterA">
	<g>
		<path d="M709.845,701.421c-6.677-88.58-19.289-173.573-37.59-253.634c-0.146-0.677-0.293-1.354-0.463-2.021
			c-5.566-24.199-11.647-47.95-18.249-71.206C623.8,269.793,582.698,171.743,531.38,83.134
			c-12.732-21.985-38.867-32.388-63.225-25.168s-40.601,30.184-39.297,55.556c2.822,54.899-16.756,171.866-52.372,312.887
			c-33.504,132.659-65.683,227.111-75.428,246.059c-16.542,21.915-14.462,53.235,5.826,72.738
			c21.898,21.049,56.716,20.362,77.767-1.536c9.689-10.079,19.787-24.825,45.326-103.525c10.61-32.695,21.912-70.63,32.957-110.494
			l111.913-10.767c11.841,60.92,20.328,124.723,25.309,190.805c2.178,28.885,26.286,50.871,54.786,50.869
			c1.387-0.001,2.787-0.053,4.192-0.158C689.424,758.116,712.128,731.711,709.845,701.421z M492.261,416.321
			c7.935-33.019,16.341-70.298,23.81-108.215c11.733,31.347,22.297,63.542,31.653,96.496c0.585,2.06,1.142,4.149,1.718,6.218
			L492.261,416.321z"/>
	</g>
</g>
<g id="Layer_1">
</g>
</svg>
