<?xml version="1.0" encoding="iso-8859-1"?>
<!-- Generator: Adobe Illustrator 25.2.3, SVG Export Plug-In . SVG Version: 6.00 Build 0)  -->
<svg version="1.1" xmlns="http://www.w3.org/2000/svg" xmlns:xlink="http://www.w3.org/1999/xlink" x="0px" y="0px"
	 viewBox="0 0 1000 1000" style="enable-background:new 0 0 1000 1000;" xml:space="preserve">
<g id="latinCapitalLetterL">
	<g>
		<path d="M670.854,551.872c-29.087-8.757-59.763,7.725-68.519,36.812c-9.421,31.295-20.273,47.795-36.289,55.173
			c-26.088,12.015-73.496,5.45-135.193-18.399c-20.926-180.62-37.765-365.067-28.088-511.123
			c2.008-30.309-20.935-56.507-51.244-58.516c-30.308-2.009-56.508,20.935-58.516,51.244
			c-10.838,163.589,9.148,367.414,32.36,563.308c2.29,19.33,14.627,36.01,32.44,43.859c55.22,24.331,102.445,38.57,144.372,43.53
			c10.796,1.276,21.255,1.914,31.371,1.914c29.222-0.001,55.539-5.321,78.521-15.908c26.717-12.308,48.926-31.606,66.011-57.363
			c12.134-18.293,21.535-39.269,29.586-66.012C716.421,591.305,699.94,560.627,670.854,551.872z"/>
	</g>
</g>
<g id="Layer_1">
</g>
</svg>
