<?xml version="1.0" encoding="iso-8859-1"?>
<!-- Generator: Adobe Illustrator 25.2.3, SVG Export Plug-In . SVG Version: 6.00 Build 0)  -->
<svg version="1.1" xmlns="http://www.w3.org/2000/svg" xmlns:xlink="http://www.w3.org/1999/xlink" x="0px" y="0px"
	 viewBox="0 0 1000 1000" style="enable-background:new 0 0 1000 1000;" xml:space="preserve">
<g id="latinCapitalLetterR">
	<g>
		<path d="M702.616,678.456c-3.059-5.29-6.134-10.645-9.231-16.04c-25.024-43.581-53.389-92.977-87.679-132.919
			c-13.401-15.611-27.078-29.076-41.11-40.444c23.442-20.582,44.331-43.671,61.23-68.043c21.809-31.452,36.629-64.381,44.051-97.871
			c8.651-39.042,7.111-78.027-4.576-115.871c-10.315-33.399-25.9-61.358-46.322-83.101c-19.232-20.476-43.35-36.091-71.681-46.413
			C500.291,60.631,447.282,59.479,391.16,58.259c-14.323-0.311-29.134-0.633-43.945-1.23c-17.056-0.682-33.478,6.591-44.426,19.697
			c-10.948,13.106-15.187,30.555-11.472,47.223c37.794,169.58,62.557,354.873,77.929,583.128
			c2.041,30.307,28.259,53.206,58.571,51.181c30.307-2.041,53.221-28.265,51.18-58.571c-3.307-49.108-7.045-96.31-11.248-141.852
			c50.646,20.731,92.66,93.904,130.243,159.356c3.152,5.489,6.28,10.937,9.392,16.319c10.192,17.63,28.669,27.482,47.668,27.481
			c9.34,0,18.808-2.383,27.476-7.393C708.824,738.396,717.818,704.754,702.616,678.456z M454.725,434.301
			c-11.292-94.479-25.021-182.03-41.565-265.487c38.451,1.083,71.674,3.257,96.486,12.296c18.99,6.918,38.258,18.808,50.554,58.618
			c11.751,38.048,3.418,77.952-24.769,118.603C515.473,387.114,486.43,414.258,454.725,434.301z"/>
	</g>
</g>
<g id="Layer_1">
</g>
</svg>
