<?xml version="1.0" encoding="iso-8859-1"?>
<!-- Generator: Adobe Illustrator 25.2.3, SVG Export Plug-In . SVG Version: 6.00 Build 0)  -->
<svg version="1.1" xmlns="http://www.w3.org/2000/svg" xmlns:xlink="http://www.w3.org/1999/xlink" x="0px" y="0px"
	 viewBox="0 0 1000 1000" style="enable-background:new 0 0 1000 1000;" xml:space="preserve">
<g id="latinSmallLetterN">
	<g>
		<path d="M703.74,679.215c-0.629-1.204-3.956-8.434-7.691-32.67c-3.011-19.544-5.351-43.795-7.826-69.471
			c-5.788-60.001-12.347-128.008-31.258-185.976c-11.665-35.755-26.688-63.735-45.929-85.541
			c-25.09-28.435-56.327-45.208-92.842-49.856c-25.635-3.26-50.261,4.385-71.222,22.117c-12.501,10.575-27.609,27.474-42.654,61.475
			c-3.983-9.606-8.465-18.201-13.552-25.834c-16.847-25.276-50.994-32.111-76.27-15.264c-25.276,16.847-32.11,50.994-15.264,76.27
			c2.36,3.541,10.663,19.22,18.441,72.344c5.907,40.349,9.853,89.431,14.03,141.395c3.252,40.455,6.615,82.288,11.139,122.623
			c3.205,28.578,27.888,49.873,56.622,48.83c28.738-1.026,51.834-24.022,52.992-52.756c0.032-0.793,3.331-80.309,15.171-165.475
			c6.77-48.7,14.925-89.483,24.238-121.216c9.007-30.69,17.15-45.984,21.877-53.043c10.316,4.311,25.277,17.065,38.646,58.047
			c15.157,46.46,21.1,108.066,26.342,162.42c5.939,61.583,10.631,110.225,27.529,142.545c9.819,18.783,28.965,29.529,48.786,29.529
			c8.587-0.001,17.301-2.018,25.437-6.271C707.401,739.364,717.814,706.133,703.74,679.215z"/>
	</g>
</g>
<g id="Layer_1">
</g>
</svg>
