<?xml version="1.0" encoding="iso-8859-1"?>
<!-- Generator: Adobe Illustrator 25.2.3, SVG Export Plug-In . SVG Version: 6.00 Build 0)  -->
<svg version="1.1" xmlns="http://www.w3.org/2000/svg" xmlns:xlink="http://www.w3.org/1999/xlink" x="0px" y="0px"
	 viewBox="0 0 1000 1000" style="enable-background:new 0 0 1000 1000;" xml:space="preserve">
<g id="latinCapitalLetterE">
	<g>
		<path d="M702.895,629.225c-14.935-26.451-48.482-35.788-74.935-20.854c-59.35,33.507-107.163,47.16-142.115,40.589
			c-16.887-3.177-42.066-12.459-68.69-55.491c-5.79-24.352-3.638-52.75,6.216-80.725c12.661-35.944,37.242-68.946,71.084-95.438
			c15.953-12.487,23.749-32.732,20.292-52.693c-3.457-19.961-17.606-36.406-36.829-42.802c-30.315-10.087-52.024-26.035-64.524-47.4
			c-11.034-18.859-15.282-42.281-12.672-69.748c13.69-18.292,36.402-36.126,65.111-38.657c34.962-3.077,72.477,17.235,108.504,58.75
			c19.908,22.94,54.646,25.401,77.587,5.491c22.941-19.909,25.4-54.646,5.491-77.587c-30.348-34.971-63.335-60.917-98.045-77.117
			C525.637,59.799,490.92,53.37,456.177,56.43C392.978,62,334.814,99.492,300.59,156.724c-3.628,6.067-6.053,12.776-7.141,19.761
			c-8.914,57.212-0.269,110.282,25,153.472c12.897,22.044,30.003,41.338,50.756,57.446c-21.651,27.177-38.423,57.107-49.585,88.795
			c-18.346,52.083-20.561,107.062-6.235,154.808c1.237,4.123,2.954,8.086,5.114,11.808c37.447,64.505,86.909,102.944,147.01,114.25
			c12.437,2.34,25.226,3.514,38.408,3.513c52.52-0.001,111.207-18.638,178.123-56.417
			C708.491,689.225,717.828,655.676,702.895,629.225z"/>
	</g>
</g>
<g id="Layer_1">
</g>
</svg>
