<?xml version="1.0" encoding="iso-8859-1"?>
<!-- Generator: Adobe Illustrator 25.2.3, SVG Export Plug-In . SVG Version: 6.00 Build 0)  -->
<svg version="1.1" xmlns="http://www.w3.org/2000/svg" xmlns:xlink="http://www.w3.org/1999/xlink" x="0px" y="0px"
	 viewBox="0 0 1000 1000" style="enable-background:new 0 0 1000 1000;" xml:space="preserve">
<g id="latinSmallLetterE">
	<g>
		<path d="M699.567,632.297c-17.8-24.612-52.184-30.136-76.798-12.337c-25.066,18.129-55.222,29.426-87.205,32.669
			c-30.086,3.054-59.535-1.536-82.926-12.92c-33.322-16.216-50.961-43.585-52.429-81.347c-0.527-13.562-0.064-26.204,1.161-37.953
			c9.806,7.629,22.249,11.994,35.628,11.539c54.326-1.857,107.604-20.597,142.733-35.99c43.215-18.937,79.763-41.876,97.766-61.365
			c13.891-15.037,20.534-31.551,19.744-49.089c-1.312-29.094-21.165-62.755-51.812-87.848
			c-40.061-32.801-92.803-46.118-148.502-37.498c-56.869,8.8-111.395,44.593-149.594,98.2
			c-19.361,27.17-34.117,58.011-43.857,91.667c-10.273,35.497-14.709,73.384-13.185,112.609
			c3.031,77.993,44.66,142.137,114.211,175.984c34.513,16.796,73.334,25,112.793,24.998c59.425-0.002,120.283-18.615,169.934-54.521
			C711.844,691.294,717.367,656.911,699.567,632.297z M513.751,368.864c5.649-0.874,11.093-1.311,16.322-1.311
			c14.774,0,27.835,3.484,38.971,10.418c0.172,0.107,0.341,0.213,0.51,0.321c-9.473,5.371-21.206,11.365-34.993,17.361
			c-35.167,15.294-69.549,24.519-97.382,26.174C458.24,392.435,486.129,373.139,513.751,368.864z"/>
	</g>
</g>
<g id="Layer_1">
</g>
</svg>
