<?xml version="1.0" encoding="iso-8859-1"?>
<!-- Generator: Adobe Illustrator 25.2.3, SVG Export Plug-In . SVG Version: 6.00 Build 0)  -->
<svg version="1.1" xmlns="http://www.w3.org/2000/svg" xmlns:xlink="http://www.w3.org/1999/xlink" x="0px" y="0px"
	 viewBox="0 0 1000 1000" style="enable-background:new 0 0 1000 1000;" xml:space="preserve">
<g id="latinSmallLetterM">
	<g>
		<path d="M699.268,485.549c-4.469-54.121-9.688-98.232-15.515-131.111c-3.733-21.068-7.719-37.628-12.184-50.628
			c-3.476-10.119-14.051-40.912-44.178-52.478c-17.427-6.689-36.823-5.046-53.214,4.507c-15.394,8.973-27.01,23.65-37.71,48.867
			c-11.04-18.992-23.982-31.583-39.667-38.837c-20.504-9.484-44.189-7.385-63.355,5.611c-14.886,10.094-26.589,25.833-37.433,51.272
			c-10.852-26.985-41.077-41.012-68.897-31.445c-28.725,9.878-44.003,41.171-34.125,69.896
			c17.592,51.157,23.537,136.012,30.421,234.265c2.603,37.141,5.293,75.547,8.834,115.385c2.538,28.556,26.496,50.133,54.73,50.133
			c1.316,0,2.643-0.047,3.977-0.142c29.929-2.141,52.62-27.873,50.997-57.835c-1.963-36.256,5.786-114.526,18.845-190.34
			c2.754-15.99,5.493-30.533,8.178-43.738c5.936,44.679,7.42,89.078,3.912,121.476c-3.224,29.764,17.951,56.639,47.642,60.47
			c29.686,3.825,56.994-16.789,61.431-46.397c0.06-0.398,4.253-28.272,10.95-66.354c5.209,76.646,7.39,147.903,7.064,166.919
			c-0.519,30.372,23.682,55.413,54.053,55.932c0.321,0.005,0.639,0.008,0.958,0.008c29.938-0.001,54.46-24.011,54.974-54.061
			C710.408,680.338,707.138,580.879,699.268,485.549z"/>
	</g>
</g>
<g id="Layer_1">
</g>
</svg>
