<?xml version="1.0" encoding="iso-8859-1"?>
<!-- Generator: Adobe Illustrator 25.2.3, SVG Export Plug-In . SVG Version: 6.00 Build 0)  -->
<svg version="1.1" xmlns="http://www.w3.org/2000/svg" xmlns:xlink="http://www.w3.org/1999/xlink" x="0px" y="0px"
	 viewBox="0 0 1000 1000" style="enable-background:new 0 0 1000 1000;" xml:space="preserve">
<g id="latinSmallLetterL">
	<g>
		<path d="M700.962,623.613c-16.683-25.385-50.787-32.438-76.169-15.755c-0.181,0.118-18.641,12.16-41.425,23.895
			c-18.697,9.63-31.834,14.739-40.505,17.451c-35.359-83.907-17.72-182.949,2.474-296.297
			c17.396-97.646,35.385-198.616,21.952-304.809C563.812,20.61,540.431,0,512.724,0c-21.537,0-44.149,8.471-75.446,20.195
			c-29.679,11.118-66.615,24.955-98.082,28.294c-30.206,3.206-52.094,30.291-48.889,60.497s30.292,52.096,60.497,48.889
			c39.583-4.201,78.278-17.343,111.087-29.461c-0.478,68.402-12.818,137.667-24.849,205.199
			c-11.351,63.712-23.087,129.593-24.237,192.93c-1.367,75.361,12.64,139.087,42.823,194.819
			c10.343,19.1,28.007,32.63,49.735,38.097c7.37,1.854,15.174,2.79,23.492,2.79c26.555,0,58.338-9.535,97.85-29.15
			c31.547-15.661,57.415-32.604,58.501-33.317C710.592,683.1,717.646,648.997,700.962,623.613z"/>
	</g>
</g>
<g id="Layer_1">
</g>
</svg>
