<?xml version="1.0" encoding="iso-8859-1"?>
<!-- Generator: Adobe Illustrator 25.2.3, SVG Export Plug-In . SVG Version: 6.00 Build 0)  -->
<svg version="1.1" xmlns="http://www.w3.org/2000/svg" xmlns:xlink="http://www.w3.org/1999/xlink" x="0px" y="0px"
	 viewBox="0 0 1000 1000" style="enable-background:new 0 0 1000 1000;" xml:space="preserve">
<g id="latinCapitalLetterH">
	<g>
		<path d="M707.147,674.352c-2.021-16.399-3.817-71.438-5.415-120.336c-5.005-153.264-11.859-363.166-41.609-459.929
			c-8.927-29.034-39.696-45.334-68.734-36.408c-29.034,8.927-45.335,39.7-36.408,68.734
			c11.911,38.742,19.806,107.193,25.272,182.415c-32.366,3.627-62.624,14.001-90.361,31.035
			c-21.067,12.938-40.486,29.671-58.07,50.003c-4.09-102.601-13.778-200.518-33.311-282.722
			c-7.022-29.553-36.676-47.817-66.225-40.795c-29.553,7.022-47.817,36.672-40.795,66.225
			c36.477,153.512,35.604,374.554,29.939,570.534c-0.854,29.538,21.787,54.473,51.27,56.464c1.26,0.085,2.512,0.127,3.756,0.127
			c27.889,0,51.649-21.054,54.642-49.183c9.737-91.514,31.354-167.197,62.513-218.869c15.874-26.324,33.991-45.855,53.848-58.05
			c12.132-7.451,25.096-12.286,39.145-14.61c2.299,50.179,3.88,98.549,5.188,138.617c1.252,38.337,2.333,71.446,3.618,95.925
			c2.015,38.401,3.616,57.597,17.873,74.191c10.879,12.662,26.264,19.159,41.743,19.159c12.687,0,25.438-4.367,35.816-13.283
			C708.331,718.571,714.061,694.942,707.147,674.352z"/>
	</g>
</g>
<g id="Layer_1">
</g>
</svg>
