<?xml version="1.0" encoding="iso-8859-1"?>
<!-- Generator: Adobe Illustrator 25.2.3, SVG Export Plug-In . SVG Version: 6.00 Build 0)  -->
<svg version="1.1" xmlns="http://www.w3.org/2000/svg" xmlns:xlink="http://www.w3.org/1999/xlink" x="0px" y="0px"
	 viewBox="0 0 1000 1000" style="enable-background:new 0 0 1000 1000;" xml:space="preserve">
<g id="latinSmallLetterS">
	<g>
		<path style="fill:#010101;" d="M681.113,552.67c-13.102-16.091-30.774-31.781-54.03-47.967
			c-38.214-26.597-84.973-50.148-130.191-72.924c-21.328-10.742-41.685-20.996-59.154-30.625
			c10.532-3.54,22.614-7.266,36.208-11.025c43.939-12.151,87.412-20.002,110.752-20.002c30.376,0,55-24.625,55-55s-24.624-55-55-55
			c-46.317,0-114.214,15.732-162.311,30.455c-20.534,6.286-50.042,16.242-74.011,27.981c-12.604,6.173-22.587,12.288-30.518,18.693
			C294.833,355.852,290,376.628,290,390.783c0,20.768,8.59,40.346,25.533,58.191c9.377,9.876,21.84,19.761,38.102,30.217
			c25.817,16.602,58.827,33.228,93.775,50.83c37.991,19.135,77.276,38.922,108.144,59.108
			c32.223,21.072,41.429,33.698,43.871,38.066c-2.992,3.276-12.894,10.506-34.727,16.792c-20.805,5.99-47.331,9.566-70.958,9.566
			c-49.384,0-82.575-2.706-95.434-16.177c-20.975-21.973-55.789-22.782-77.761-1.808c-21.972,20.975-22.781,55.789-1.808,77.761
			c20.17,21.13,45.686,34.981,78.005,42.346c24.234,5.521,53.242,7.878,96.997,7.878c15.621,0,70.511-1.464,120.989-20.302
			c25.458-9.501,46.245-22.155,61.784-37.61C698.42,683.852,710,656.613,710,626.872C710,601.177,700.281,576.211,681.113,552.67z"
			/>
	</g>
</g>
<g id="Layer_1">
</g>
</svg>
