<?xml version="1.0" encoding="iso-8859-1"?>
<!-- Generator: Adobe Illustrator 25.2.3, SVG Export Plug-In . SVG Version: 6.00 Build 0)  -->
<svg version="1.1" xmlns="http://www.w3.org/2000/svg" xmlns:xlink="http://www.w3.org/1999/xlink" x="0px" y="0px"
	 viewBox="0 0 1000 1000" style="enable-background:new 0 0 1000 1000;" xml:space="preserve">
<g id="latinSmallLetterW">
	<g>
		<path d="M698.346,392.267c-15.669-73.138-45.566-116.459-88.859-128.76c-29.212-8.301-59.637,8.654-67.938,37.874
			c-7.741,27.247,6.479,55.534,32.127,65.961c3.554,4.932,10.836,19.106,16.912,47.042c6.338,29.14,9.675,65.243,9.396,101.657
			c-0.26,34.066-3.73,67.125-9.772,93.084c-1.643,7.059-3.365,13.114-5.061,18.26c-8.443-18.202-19.672-49.096-31.394-100.39
			c-6.233-27.271-31.944-45.522-59.746-42.404c-27.418,3.074-48.252,25.962-48.859,53.427c-0.419,5.895-4.033,33.667-11.882,64.706
			c-4.84,19.14-9.54,32.654-13.488,42.037c-1.948-4.272-4.049-9.717-6.147-16.616c-6.509-21.4-10.898-50.228-12.694-83.364
			c-3.652-67.403,3.973-138.537,12.603-176.106c6.801-29.604-11.686-59.117-41.291-65.917c-29.602-6.802-59.117,11.685-65.917,41.29
			c-11.452,49.854-17.625,120.395-16.108,184.092c2.061,86.562,17.359,150.645,45.472,190.469
			c24.719,35.017,55.03,46.035,76.781,48.977c4.452,0.746,8.904,1.115,13.333,1.115c19.036-0.001,37.605-6.822,53.51-19.88
			c10.652-8.747,20.28-20.501,28.96-35.414c2.892,3.899,5.853,7.528,8.894,10.901c29.763,33.02,61.896,34.795,78.403,32.917
			c26.672-3.038,63.588-19.189,87.992-78.886c15.47-37.844,21.773-83.102,24.337-114.404
			C712.691,505.528,709.206,442.958,698.346,392.267z M445.139,539.172c0-0.23,0-0.5,0.007-0.809
			C445.142,538.633,445.139,538.902,445.139,539.172z"/>
	</g>
</g>
<g id="Layer_1">
</g>
</svg>
