<?xml version="1.0" encoding="iso-8859-1"?>
<!-- Generator: Adobe Illustrator 25.2.3, SVG Export Plug-In . SVG Version: 6.00 Build 0)  -->
<svg version="1.1" xmlns="http://www.w3.org/2000/svg" xmlns:xlink="http://www.w3.org/1999/xlink" x="0px" y="0px"
	 viewBox="0 0 1000 1000" style="enable-background:new 0 0 1000 1000;" xml:space="preserve">
<g id="latinCapitalLetterZ">
	<g>
		<path d="M665.62,313.818c-33.377-6.568-70.843-6.97-108.576-4.843c31.38-48.452,67.889-102.72,109.972-163.513
			c11.052-15.965,12.865-36.576,4.773-54.227c-8.093-17.65-24.893-29.726-44.202-31.771c-32.236-3.415-71.393-4.394-109.259-5.341
			c-30.565-0.764-62.171-1.555-88.008-3.615c-31.882-2.542-42.599-6.115-44.938-7.047c-25.187-15.73-58.471-8.61-74.966,16.3
			c-16.771,25.327-9.835,59.453,15.492,76.224c34.893,23.104,94.806,25.731,189.67,28.104c1.788,0.045,3.578,0.089,5.371,0.135
			c-39.72,58.935-73.587,111.211-102.105,157.642c-3.623,0.275-7.124,0.51-10.482,0.697c-18.252,1.013-26.154,0.191-28.822-0.241
			c-25.993-12.167-57.326-2.249-71.408,23.241c-14.689,26.588-5.044,60.049,21.543,74.739c8.095,4.473,16.98,7.566,26.779,9.6
			c-10.966,20.633-20.396,39.658-28.366,57.206c-21.075,46.401-33.117,84.967-36.815,117.904
			c-4.087,36.401,1.532,67.486,17.177,95.029c2.02,3.557,4.431,6.876,7.187,9.898c19.156,21.003,59.612,47.19,143.562,52.678
			c9.689,0.633,19.507,0.946,29.423,0.946c51.975-0.001,106.39-8.615,156.042-24.914c28.86-9.475,44.576-40.551,35.103-69.411
			c-9.474-28.859-40.549-44.573-69.411-35.103c-44.866,14.729-94.862,21.443-140.772,18.909
			c-37.584-2.075-59.093-9.598-68.248-14.43c-6.171-24.691,10.701-70.342,26.905-106.018c13.706-30.177,32.33-65.458,56.389-106.688
			c55.294-5.953,117.477-12.479,159.749-4.161c3.587,0.706,7.156,1.046,10.68,1.045c25.746-0.002,48.746-18.173,53.905-44.39
			C714.83,348.6,695.425,319.684,665.62,313.818z"/>
	</g>
</g>
<g id="Layer_1">
</g>
</svg>
