<?xml version="1.0" encoding="iso-8859-1"?>
<!-- Generator: Adobe Illustrator 25.2.3, SVG Export Plug-In . SVG Version: 6.00 Build 0)  -->
<svg version="1.1" xmlns="http://www.w3.org/2000/svg" xmlns:xlink="http://www.w3.org/1999/xlink" x="0px" y="0px"
	 viewBox="0 0 1000 1000" style="enable-background:new 0 0 1000 1000;" xml:space="preserve">
<g id="latinSmallLetterX">
	<g>
		<path d="M697.215,649.542c-39.442-47.226-78.462-103.433-114.496-157.109c32.218-56.882,62.971-109.851,86.661-145.695
			c16.749-25.341,9.783-59.461-15.558-76.21c-25.339-16.748-59.462-9.783-76.21,15.558c-18.347,27.759-40.099,64.142-63.267,104.277
			c-23.709-34.533-43.993-61.851-61.477-79.04c-18.763-18.447-47.965-21.02-69.666-6.137
			c-42.709,29.291-73.315,74.573-90.967,134.587c-8.571,29.141,8.104,59.713,37.246,68.284c29.145,8.576,59.714-8.104,68.285-37.245
			c3.913-13.303,8.541-25.059,13.93-35.337c12.987,18.376,27.46,39.917,42.046,61.805c-2.082,3.708-4.162,7.415-6.238,11.115
			c-37.729,67.229-73.367,130.729-97.172,167.959c-16.364,25.591-8.883,59.602,16.708,75.966c9.178,5.869,19.436,8.67,29.578,8.67
			c18.136,0,35.894-8.965,46.389-25.378c20.831-32.577,48.918-81.792,79.498-136.128c28.726,41.545,59.034,83.151,90.284,120.569
			c10.879,13.025,26.504,19.746,42.244,19.745c12.432,0,24.938-4.194,35.227-12.787
			C713.569,707.541,716.686,672.856,697.215,649.542z"/>
	</g>
</g>
<g id="Layer_1">
</g>
</svg>
