<?xml version="1.0" encoding="iso-8859-1"?>
<!-- Generator: Adobe Illustrator 25.2.3, SVG Export Plug-In . SVG Version: 6.00 Build 0)  -->
<svg version="1.1" xmlns="http://www.w3.org/2000/svg" xmlns:xlink="http://www.w3.org/1999/xlink" x="0px" y="0px"
	 viewBox="0 0 1000 1000" style="enable-background:new 0 0 1000 1000;" xml:space="preserve">
<g id="latinCapitalLetterU">
	<g>
		<path d="M709.943,413.291c-1.43-98.307-29.671-197.833-83.939-295.812c-14.72-26.572-48.192-36.182-74.762-21.464
			c-26.572,14.718-36.182,48.189-21.464,74.761c42.674,77.047,66.138,154.444,69.738,230.042
			c3.63,76.204-13.865,133.7-29.182,168.514c-24.824,56.428-55.52,81.613-66.686,86.29c-3.14-1.945-11.534-8.473-22.84-27.517
			c-14.425-24.298-28.046-59.912-39.39-102.991C414.323,422.214,400,279.356,400,111.984c0-30.375-24.624-55-55-55
			c-30.375,0-55,24.625-55,55c0,159.55,12.16,295.551,36.141,404.225c23.423,106.144,56.924,179.437,99.574,217.843
			c28.398,25.573,56.4,32.073,77.522,32.073c3.807,0,7.391-0.212,10.712-0.561c52.286-5.488,106.687-53.276,145.521-127.834
			C683.318,591.942,711.435,515.836,709.943,413.291z"/>
	</g>
</g>
<g id="Layer_1">
</g>
</svg>
