<?xml version="1.0" encoding="iso-8859-1"?>
<!-- Generator: Adobe Illustrator 25.2.3, SVG Export Plug-In . SVG Version: 6.00 Build 0)  -->
<svg version="1.1" xmlns="http://www.w3.org/2000/svg" xmlns:xlink="http://www.w3.org/1999/xlink" x="0px" y="0px"
	 viewBox="0 0 1000 1000" style="enable-background:new 0 0 1000 1000;" xml:space="preserve">
<g id="latinSmallLetterR">
	<g>
		<path style="fill:#010101;" d="M669.612,276.228c-138.664-38.213-218.691,4.487-261.411,47.037
			c-10.03,9.99-19.132,21.096-27.26,33.248c-14.845-12.787-36.065-17.212-55.64-9.705c-28.361,10.879-42.532,42.689-31.653,71.05
			c16.433,42.838,27.325,105.806,37.859,166.701c2.337,13.51,4.698,27.158,7.148,40.79c4.286,30.121,10.821,61.411,19.594,93.749
			c6.641,24.478,28.81,40.615,53.046,40.612c4.615,0,9.311-0.586,13.983-1.811c29.206-7.657,46.779-37.427,39.371-66.697
			c-6.364-25.145-11.862-52.945-16.991-81.233c-5.253-37.059-6.458-71.638-3.457-102.337c4.603-47.089,18.996-83.892,41.624-106.43
			c14.63-14.571,32.776-23.582,55.477-27.545c27.544-4.81,60.881-1.91,99.084,8.619c29.286,8.069,59.564-9.128,67.636-38.411
			C716.094,314.58,698.896,284.298,669.612,276.228z"/>
	</g>
</g>
<g id="Layer_1">
</g>
</svg>
