<?xml version="1.0" encoding="iso-8859-1"?>
<!-- Generator: Adobe Illustrator 25.2.3, SVG Export Plug-In . SVG Version: 6.00 Build 0)  -->
<svg version="1.1" xmlns="http://www.w3.org/2000/svg" xmlns:xlink="http://www.w3.org/1999/xlink" x="0px" y="0px"
	 viewBox="0 0 1000 1000" style="enable-background:new 0 0 1000 1000;" xml:space="preserve">
<g id="latinSmallLetterU">
	<g>
		<path style="fill:#010101;" d="M693.718,649.503c-7.408-7.342-20.841-28.177-27.576-85.222
			c-5.504-46.61-5.009-101.583-4.53-154.745c0.129-14.333,0.263-29.154,0.265-43.311c0.004-29.019-22.538-53.041-51.498-54.889
			c-28.938-1.847-54.374,19.128-58.059,47.912c-0.092,0.717-9.407,72.63-28.512,148.106
			c-28.888,114.125-55.67,142.487-62.718,148.247c-12.123-2.338-26.693-8.736-38.917-31.027
			c-18.225-33.235-25.588-89.605-20.733-158.726c4.34-61.786,16.844-110.801,21.686-122.16c14.576-25.48,6.546-58.148-18.552-73.879
			c-25.739-16.131-59.68-8.344-75.812,17.394c-17.432,27.812-30.796,100.293-35.837,155.867
			c-5.721,63.076-5.805,152.708,26.288,221.527c26.891,57.663,72.022,92.443,130.515,100.579c4.588,0.639,9.162,0.955,13.714,0.955
			c22.464-0.001,44.329-7.727,63.92-22.709c19.8-15.143,37.445-37.785,53.499-68.757c9.315,21.264,21.039,38.706,35.424,52.964
			c21.573,21.383,56.398,21.228,77.781-0.346C715.446,705.71,715.292,670.887,693.718,649.503z"/>
	</g>
</g>
<g id="Layer_1">
</g>
</svg>
