<?xml version="1.0" encoding="iso-8859-1"?>
<!-- Generator: Adobe Illustrator 25.2.3, SVG Export Plug-In . SVG Version: 6.00 Build 0)  -->
<svg version="1.1" xmlns="http://www.w3.org/2000/svg" xmlns:xlink="http://www.w3.org/1999/xlink" x="0px" y="0px"
	 viewBox="0 0 1000 1000" style="enable-background:new 0 0 1000 1000;" xml:space="preserve">
<g id="latinSmallLetterG">
	<g>
		<path d="M692.877,473.676c-17.337-93.788-44.662-146.012-85.994-164.355c-11.102-4.927-23.188-5.929-34.483-3.364
			c-4.092-21.793-21.223-39.836-44.344-43.992c-41.583-7.472-86.199,7.511-129.03,43.33c-29.318,24.519-56.289,57.996-75.944,94.265
			C307.99,427.407,290,470.244,290,516.174c0,16.149,1.555,48.636,11.965,84.754c11.176,38.774,29.033,69.495,53.073,91.309
			c29.453,26.726,66.898,38.718,108.289,34.691c51.994-5.062,99.858-33.096,136.118-78.638c0.969,35.062,0.692,72.008-0.86,110.188
			c-0.72,17.733-2.913,71.698-37.915,101.077c-21.616,18.143-52.93,25.829-80.583,31.608c-29.733,6.215-48.799,35.355-42.584,65.089
			c5.421,25.94,28.289,43.762,53.78,43.759c3.728,0,7.515-0.381,11.309-1.174c43.734-9.141,89.608-22.134,128.798-55.028
			c47.921-40.222,73.863-101.073,77.105-180.864C712.959,653.12,707.559,553.093,692.877,473.676z M552.884,469.716
			c-1.449,29.915-9.876,60.47-23.727,86.039c-19.716,36.392-47.595,58.878-76.489,61.69c-12.983,1.27-19.07-2.46-23.712-6.672
			C410.148,593.708,400,549.297,400,516.174c0-37.658,31.22-94.405,69.594-126.498c17.507-14.642,31.306-19.564,37.502-19.564
			c0.565,0,1.068,0.041,1.504,0.119c7.505,1.349,14.924,1.107,21.914-0.485c0.983,5.236,2.74,10.387,5.294,15.283
			C548.485,409.334,554.39,438.618,552.884,469.716z"/>
	</g>
</g>
<g id="Layer_1">
</g>
</svg>
