<?xml version="1.0" encoding="iso-8859-1"?>
<!-- Generator: Adobe Illustrator 25.2.3, SVG Export Plug-In . SVG Version: 6.00 Build 0)  -->
<svg version="1.1" xmlns="http://www.w3.org/2000/svg" xmlns:xlink="http://www.w3.org/1999/xlink" x="0px" y="0px"
	 viewBox="0 0 1000 1000" style="enable-background:new 0 0 1000 1000;" xml:space="preserve">
<g id="latinSmallLetterT">
	<g>
		<path style="fill:#010101;" d="M678.057,555.229c-27.576-12.736-60.257-0.699-72.99,26.876
			c-14.808,32.069-38.373,68.879-89.586,68.879c-17.763,0-22.262-1.945-22.91-2.284c-0.844-0.741-10.69-10.478-19.513-67.158
			c-2.598-36.378-2.477-77.344-0.856-120.584c17.519-3.672,35.105-8.059,52.723-13.205c49.451-14.444,99.458-34.745,148.631-60.341
			c26.944-14.025,37.417-47.237,23.392-74.181c-14.024-26.944-47.236-37.417-74.181-23.392
			c-42.815,22.287-86.109,39.891-128.682,52.325c-5.07,1.481-10.13,2.868-15.184,4.203c1.384-19.067,2.849-38.186,4.305-57.187
			c6.771-88.365,13.167-171.83,10.337-236.581c-1.326-30.347-26.989-53.861-57.349-52.546
			c-30.347,1.326-53.873,27.002-52.546,57.349c2.541,58.141-3.609,138.4-10.121,223.373c-2.117,27.633-4.252,55.505-6.144,83.218
			c-7.506,0.357-14.972,0.558-22.383,0.558c-30.375,0-55,24.625-55,55s24.625,55,55,55c5.548,0,11.121-0.107,16.704-0.269
			c-1.18,41.399-0.911,81.095,1.812,117.552c0.104,1.397,0.262,2.791,0.473,4.176c9.681,63.625,23.97,101.708,47.779,127.341
			c30.803,33.162,69.713,37.634,103.712,37.634c41.745,0,79.305-11.54,111.636-34.3c31.806-22.391,57.986-55.519,77.817-98.464
			C717.668,600.642,705.635,567.963,678.057,555.229z"/>
	</g>
</g>
<g id="Layer_1">
</g>
</svg>
