<?xml version="1.0" encoding="iso-8859-1"?>
<!-- Generator: Adobe Illustrator 25.2.3, SVG Export Plug-In . SVG Version: 6.00 Build 0)  -->
<svg version="1.1" xmlns="http://www.w3.org/2000/svg" xmlns:xlink="http://www.w3.org/1999/xlink" x="0px" y="0px"
	 viewBox="0 0 1000 1000" style="enable-background:new 0 0 1000 1000;" xml:space="preserve">
<g id="latinSmallLetterK">
	<g>
		<path d="M708.58,723.138c-16.511-71.241-42.297-121.679-81.151-158.731c-7.697-7.341-15.883-14.166-24.666-20.53
			c5.27-3.194,10.353-6.478,15.211-9.834c61.657-42.598,91.011-98.311,82.653-156.878c-5.377-37.68-27.3-69.781-61.73-90.391
			c-57.078-34.165-140.32-33.219-205.333-16.954c-10.888-98.651-21.046-177.423-35.583-229.585
			c-8.154-29.26-38.482-46.371-67.746-38.216c-29.26,8.154-46.371,38.485-38.216,67.746
			c15.577,55.894,26.986,162.548,40.196,286.044c11.774,110.064,25.118,234.813,44.953,358.811
			c4.327,27.053,27.694,46.32,54.242,46.32c2.887,0,5.813-0.228,8.755-0.698c29.994-4.798,50.42-33.003,45.622-62.997
			c-5.035-31.477-9.649-63.091-13.928-94.556c36.419,10.94,61.573,24.078,79.656,41.323c22.916,21.854,38.308,53.916,49.905,103.96
			c5.891,25.416,28.515,42.598,53.532,42.596c4.11-0.001,8.289-0.465,12.465-1.433C697.009,782.276,715.438,752.729,708.58,723.138z
			 M586.445,413.575c-6.067,9.785-16.786,20.146-30.997,29.965c-25.807,17.829-62.613,33.294-98.322,41.555
			c-4.143-35.635-7.969-70.564-11.606-104.341c48.253-15.863,109.609-15.921,136.88,0.403c8.399,5.027,8.959,8.952,9.33,11.548
			C592.397,397.378,592.399,403.974,586.445,413.575z"/>
	</g>
</g>
<g id="Layer_1">
</g>
</svg>
