<?xml version="1.0" encoding="iso-8859-1"?>
<!-- Generator: Adobe Illustrator 25.2.3, SVG Export Plug-In . SVG Version: 6.00 Build 0)  -->
<svg version="1.1" xmlns="http://www.w3.org/2000/svg" xmlns:xlink="http://www.w3.org/1999/xlink" x="0px" y="0px"
	 viewBox="0 0 1000 1000" style="enable-background:new 0 0 1000 1000;" xml:space="preserve">
<g id="latinCapitalLetterW">
	<g>
		<path d="M703.047,266.221c-5.114-47.59-12.695-87.481-22.531-118.566c-9.435-29.814-26.387-71.328-64.518-87.561
			c-27.947-11.897-60.251,1.113-72.148,29.061c-10.886,25.568-0.924,54.781,22.252,68.681c3.44,5.669,13.581,26.017,22.216,79.689
			c7.344,45.653,11.49,103.115,11.676,161.8c0.187,58.961-3.646,116.376-10.791,161.669c-1.417,8.982-2.885,17.023-4.363,24.211
			c-8.892-30.987-19.521-78.046-30.329-148.907c-4.335-28.424-29.823-48.714-58.504-46.552
			c-28.626,2.157-50.77,25.964-50.867,54.656c-0.159,8.491-4.327,56.569-12.952,107.364c-4.267,25.126-8.55,44.708-12.501,59.876
			c-7.723-28.994-15.659-76.595-18.595-153.47c-4.079-106.782,3.698-217.21,13.214-279.28c4.603-30.025-16.005-58.097-46.03-62.7
			c-30.026-4.605-58.096,16.004-62.699,46.03c-11.268,73.496-20.145,207.817-13.008,329.054
			c3.884,65.98,12.041,120.009,24.243,160.584c7.944,26.416,17.561,47.322,29.399,63.914c20.641,28.929,44.819,39.479,62.37,43.116
			c5.654,1.381,11.384,2.062,17.096,2.062c15.773-0.001,31.392-5.195,44.782-15.195c15.292-11.419,27.782-28.867,38.505-54.042
			c11.146,19.632,22.039,30.479,32.341,37.915c17.116,12.354,37.467,17.294,57.306,13.906c34.861-5.949,61.427-33.327,78.957-81.373
			c10.824-29.666,19.146-68.867,24.732-116.515C712.354,459.889,712.635,355.429,703.047,266.221z"/>
	</g>
</g>
<g id="Layer_1">
</g>
</svg>
