<?xml version="1.0" encoding="iso-8859-1"?>
<!-- Generator: Adobe Illustrator 25.2.3, SVG Export Plug-In . SVG Version: 6.00 Build 0)  -->
<svg version="1.1" xmlns="http://www.w3.org/2000/svg" xmlns:xlink="http://www.w3.org/1999/xlink" x="0px" y="0px"
	 viewBox="0 0 1000 1000" style="enable-background:new 0 0 1000 1000;" xml:space="preserve">
<g id="latinCapitalLetterN">
	<g>
		<path d="M709.953,343.788c-3.137-75.854-11.729-128.212-27.86-169.77c-16.096-41.464-38.011-68.215-61.213-96.538l-0.287-0.35
			c-19.248-23.497-53.901-26.942-77.4-7.692c-23.497,19.25-26.941,53.903-7.691,77.4l0.287,0.351
			c20.479,24.998,34.008,41.513,43.759,66.634c11.309,29.134,17.809,71.393,20.433,132.911
			c-1.129,63.889-3.394,136.554-11.415,193.277c-6.116,43.245-13.878,64.47-18.976,74.425c-3.801-8.785-9.214-24.028-15.653-49.854
			c-9.168-36.766-17.93-84.346-27.206-134.72c-16.328-88.672-34.836-189.175-63.899-281.532
			c-8.039-25.546-33.308-41.593-59.848-37.993c-26.538,3.595-46.629,25.783-47.582,52.546c-0.491,13.798-0.949,27.493-1.404,41.119
			c-5.199,155.439-10.109,302.258-61.954,487.13c-8.202,29.247,8.859,59.605,38.106,67.808c4.966,1.393,9.964,2.057,14.88,2.057
			c24.038,0,46.119-15.882,52.928-40.162c17.462-62.271,29.935-120.149,38.994-175.277c19.225,92.418,36.97,143.05,73.183,167.976
			c2.67,1.838,5.497,3.436,8.448,4.775c48.041,21.811,83.604,10.286,104.977-3.221c21.986-13.895,38.796-35.822,51.39-67.036
			c9.078-22.499,16.054-50.12,21.324-84.442c9.887-64.384,12.483-145.619,13.719-216.592
			C710.011,345.941,709.997,344.863,709.953,343.788z"/>
	</g>
</g>
<g id="Layer_1">
</g>
</svg>
