<?xml version="1.0" encoding="iso-8859-1"?>
<!-- Generator: Adobe Illustrator 25.2.3, SVG Export Plug-In . SVG Version: 6.00 Build 0)  -->
<svg version="1.1" xmlns="http://www.w3.org/2000/svg" xmlns:xlink="http://www.w3.org/1999/xlink" x="0px" y="0px"
	 viewBox="0 0 1000 1000" style="enable-background:new 0 0 1000 1000;" xml:space="preserve">
<g id="latinCapitalLetterG">
	<g>
		<path d="M692.286,667.074c-10.49-49.609-22.381-105.838-23.629-171.864c-0.527-27.911-21.881-51-49.665-53.702
			c-27.778-2.706-53.187,15.837-59.084,43.124c-10.453,48.367-32.382,95.334-60.163,128.857
			c-24.494,29.556-45.686,38.663-53.951,37.574c-13.798-1.818-24.468-25.09-28.415-35.011C406.334,588.291,400,548.292,400,506.312
			c0-43.33,6.839-91.207,19.777-138.455c14.915-54.464,36.892-104.883,65.321-149.855c31.315-49.538,48.439-52.899,50.289-53.12
			c3.595-0.435,12.086,3.236,24.185,14.969c21.806,21.146,56.624,20.615,77.773-1.191c21.146-21.806,20.613-56.625-1.191-77.773
			c-35.818-34.738-74.097-49.957-113.771-45.233c-27.365,3.258-53.607,16.206-77.997,38.485
			c-17.714,16.181-34.811,37.471-52.268,65.085c-34.253,54.185-60.642,114.604-78.435,179.58
			C298.189,395.385,290,453.308,290,506.312c0,56.189,8.939,109.603,25.17,150.402c10.573,26.577,24.383,48.569,41.046,65.364
			c21.004,21.171,47.009,34.325,75.206,38.041c51.811,6.827,105.81-19.948,152.162-75.411c0.363,1.723,0.725,3.429,1.083,5.123
			C592.895,728.739,600,762.341,600,790.411c0,30.376,24.624,55,55,55s55-24.624,55-55C710,750.837,701.396,710.15,692.286,667.074z
			"/>
	</g>
</g>
<g id="Layer_1">
</g>
</svg>
