<?xml version="1.0" encoding="iso-8859-1"?>
<!-- Generator: Adobe Illustrator 25.2.3, SVG Export Plug-In . SVG Version: 6.00 Build 0)  -->
<svg version="1.1" xmlns="http://www.w3.org/2000/svg" xmlns:xlink="http://www.w3.org/1999/xlink" x="0px" y="0px"
	 viewBox="0 0 1000 1000" style="enable-background:new 0 0 1000 1000;" xml:space="preserve">
<g id="latinSmallLetterI">
	<g>
		<path style="fill:#010101;" d="M687.582,569.127c-24.48-17.982-58.881-12.745-76.863,11.736
			c-0.138,0.186-13.906,18.744-32.642,37.558c-16.003,16.069-28.105,24.726-35.703,29.014c-3.479-8.888-8.304-26.218-11.03-57.749
			c-3.026-35.007-2.847-79.349,0.532-131.792c5.904-91.631,19.674-175.875,19.811-176.706c3.562-21.58-6.002-43.218-24.356-55.112
			c-18.355-11.894-42.013-11.783-60.254,0.285c-36.865,24.386-70.754,29.904-124.214,31.983
			c-30.353,1.181-54.001,26.744-52.821,57.096c1.18,30.352,26.729,54.001,57.096,52.821c26.82-1.043,54.547-2.876,83.138-9.072
			c-3.446,30.839-6.792,66.612-8.892,103.479c-3.497,61.369-2.762,113.206,2.183,154.07c7.89,65.211,26.565,105.882,58.771,127.996
			c10.397,7.139,28.442,16.236,52.854,16.236c12.693,0,27.11-2.46,43.066-8.936c20.104-8.158,40.481-21.658,62.298-41.272
			c32.696-29.396,57.722-63.29,58.771-64.719C717.309,621.563,712.063,587.109,687.582,569.127z"/>
		<path style="fill:#010101;" d="M457.642,138.396c10.806,11.317,25.284,17.018,39.786,17.018c13.65,0,27.323-5.05,37.975-15.222
			c21.969-20.977,22.772-55.792,1.796-77.761l-43.363-45.413c-20.978-21.97-55.792-22.773-77.761-1.796
			c-21.969,20.977-22.773,55.792-1.796,77.761L457.642,138.396z"/>
	</g>
</g>
<g id="Layer_1">
</g>
</svg>
