<?xml version="1.0" encoding="iso-8859-1"?>
<!-- Generator: Adobe Illustrator 25.2.3, SVG Export Plug-In . SVG Version: 6.00 Build 0)  -->
<svg version="1.1" xmlns="http://www.w3.org/2000/svg" xmlns:xlink="http://www.w3.org/1999/xlink" x="0px" y="0px"
	 viewBox="0 0 1000 1000" style="enable-background:new 0 0 1000 1000;" xml:space="preserve">
<g id="latinSmallLetterO">
	<g>
		<path style="fill:#010101;" d="M662.762,371.797c-14.238-23.192-30.761-43.143-47.783-57.695
			c-23.624-20.196-48.155-30.437-72.912-30.437c-0.688,0-1.375,0.013-2.062,0.039c-10.02-13.524-26.096-22.291-44.221-22.291
			c-50.377,0-102.881,29.557-144.051,81.092C312.5,391.614,290,453.522,290,512.354c0,68.88,22.339,132.94,62.901,180.381
			c39.181,45.824,91.259,72.105,142.882,72.105c53.142,0,107.657-26.592,149.568-72.956C686.437,646.434,710,587.361,710,529.815
			C710,478.292,692.782,420.697,662.762,371.797z M563.749,618.12c-20.474,22.649-46.517,36.72-67.966,36.72
			c-22.529,0-45.392-17.352-59.276-33.591C412.965,593.716,400,555.042,400,512.354c0-34.337,13.732-71.22,37.676-101.192
			c1.945-2.435,3.905-4.752,5.87-6.953c4.621,11.987,13.44,22.418,25.703,28.871c26.881,14.143,60.14,3.817,74.283-23.065
			c1.677-3.187,3.177-5.874,4.505-8.136c7.391,7.438,16.995,19.538,26.5,37.022C590.719,468.667,600,501.805,600,529.815
			C600,560.448,586.787,592.635,563.749,618.12z"/>
	</g>
</g>
<g id="Layer_1">
</g>
</svg>
