<?xml version="1.0" encoding="iso-8859-1"?>
<!-- Generator: Adobe Illustrator 25.2.3, SVG Export Plug-In . SVG Version: 6.00 Build 0)  -->
<svg version="1.1" xmlns="http://www.w3.org/2000/svg" xmlns:xlink="http://www.w3.org/1999/xlink" x="0px" y="0px"
	 viewBox="0 0 1000 1000" style="enable-background:new 0 0 1000 1000;" xml:space="preserve">
<g id="latinCapitalLetterY">
	<g>
		<path d="M692.695,99.235c-9.251-28.931-40.205-44.888-69.138-35.636c-28.933,9.252-44.888,40.206-35.636,69.139
			c13.677,42.772,15.836,73.712,6.243,89.474c-9.029,14.837-35.063,26.17-77.41,33.704c-44.711,1.38-74.13-5.541-89.874-21.116
			c-19.466-19.259-28.438-60.043-26.665-121.222c0.88-30.363-23.021-55.69-53.384-56.57c-30.366-0.876-55.69,23.021-56.57,53.384
			c-1.323,45.646,2.291,83.54,11.046,115.846c9.599,35.418,25.819,64.608,48.209,86.76c21.431,21.203,48.723,36.2,81.116,44.576
			c13.392,3.463,27.786,5.852,43.39,7.2c6.876,84.294,1.492,244.034-4.337,336.462c-1.913,30.315,21.113,56.44,51.429,58.353
			c1.179,0.074,2.35,0.111,3.515,0.111c28.795,0,53-22.403,54.838-51.54c0.162-2.562,14.363-231.44,3.9-355.058
			c39.345-12.085,80.177-33.302,104.764-73.703c14.55-23.907,21.907-52.227,21.868-84.171
			C709.965,166.941,704.305,135.542,692.695,99.235z"/>
	</g>
</g>
<g id="Layer_1">
</g>
</svg>
