<?xml version="1.0" encoding="iso-8859-1"?>
<!-- Generator: Adobe Illustrator 25.2.3, SVG Export Plug-In . SVG Version: 6.00 Build 0)  -->
<svg version="1.1" xmlns="http://www.w3.org/2000/svg" xmlns:xlink="http://www.w3.org/1999/xlink" x="0px" y="0px"
	 viewBox="0 0 1000 1000" style="enable-background:new 0 0 1000 1000;" xml:space="preserve">
<g id="latinCapitalLetterD">
	<g>
		<path d="M701.945,344.276c-0.168-1.118-0.37-2.23-0.606-3.336c-10.91-51.012-26.904-95.809-47.536-133.147
			c-21.419-38.761-48.406-70.629-80.213-94.719c-61.401-46.505-140.479-64.436-235.027-53.292
			c-15.718,1.853-29.877,10.387-38.855,23.42c-8.979,13.034-11.908,29.304-8.038,44.651c12.822,50.842,56.456,243.03,79.625,581.458
			c1.976,28.865,25.967,51.243,54.866,51.243c0.099,0,0.203,0,0.302-0.001c89.541-0.483,163.113-31.384,212.762-89.36
			c31.667-36.979,52.99-84.114,63.378-140.098C712.649,476.948,712.428,414.093,701.945,344.276z M555.674,599.644
			c-19.474,22.74-45.874,37.938-78.822,45.442c-14.249-180.044-36.926-350.595-63.362-477.725
			c37.239,3.014,68.19,14.09,93.686,33.401c40.641,30.781,69.652,85.126,86.24,161.535
			C609.348,470.146,596.308,552.195,555.674,599.644z"/>
	</g>
</g>
<g id="Layer_1">
</g>
</svg>
