<?xml version="1.0" encoding="iso-8859-1"?>
<!-- Generator: Adobe Illustrator 25.2.3, SVG Export Plug-In . SVG Version: 6.00 Build 0)  -->
<svg version="1.1" xmlns="http://www.w3.org/2000/svg" xmlns:xlink="http://www.w3.org/1999/xlink" x="0px" y="0px"
	 viewBox="0 0 1000 1000" style="enable-background:new 0 0 1000 1000;" xml:space="preserve">
<g id="latinCapitalLetterF">
	<g>
		<path d="M709.59,432.187c-3.701-30.149-31.143-51.588-61.291-47.889l-176.766,21.7c-1.095-12.489-2.301-24.671-3.618-36.536
			c-9.005-81.076-22.993-148.107-42.383-202.624c67.163-4.348,137.91,3.617,199.071,23.213c28.928,9.27,59.891-6.669,69.158-35.596
			c9.269-28.927-6.668-59.891-35.596-69.159C610.521,70.03,556.654,60.228,502.389,56.948
			c-58.473-3.537-115.204,0.323-168.619,11.464c-17.337,3.616-31.872,15.359-39.05,31.55c-7.178,16.19-6.12,34.847,2.841,50.123
			c28.902,49.264,49.434,127.158,61.025,231.52c9.867,88.834,13.115,197.315,9.654,322.43c-0.84,30.363,23.094,55.659,53.458,56.499
			c0.519,0.015,1.034,0.021,1.55,0.021c29.669-0.001,54.125-23.634,54.95-53.479c1.893-68.419,1.831-132.25-0.164-191.05
			l183.667-22.546C691.851,489.777,713.291,462.336,709.59,432.187z"/>
	</g>
</g>
<g id="Layer_1">
</g>
</svg>
