<?xml version="1.0" encoding="iso-8859-1"?>
<!-- Generator: Adobe Illustrator 25.2.3, SVG Export Plug-In . SVG Version: 6.00 Build 0)  -->
<svg version="1.1" xmlns="http://www.w3.org/2000/svg" xmlns:xlink="http://www.w3.org/1999/xlink" x="0px" y="0px"
	 viewBox="0 0 1000 1000" style="enable-background:new 0 0 1000 1000;" xml:space="preserve">
<g id="leftParenthesis">
	<g>
		<path style="fill:#010101;" d="M701.301,25.315C684.905-0.257,650.887-7.696,625.314,8.699
			c-127.83,81.956-229.958,212.526-287.569,367.658c-53.87,145.056-62.659,295.198-24.115,411.925
			c10.774,32.627,25.191,62.324,42.853,88.268c18.868,27.716,41.525,51.29,67.341,70.068
			c48.786,35.484,107.146,53.396,173.806,53.395c8.672-0.001,17.495-0.304,26.444-0.911c30.307-2.057,53.207-28.292,51.15-58.598
			s-28.304-53.202-58.598-51.15c-51.3,3.485-94.398-7.182-128.099-31.692c-31.567-22.961-55.269-57.908-70.446-103.87
			c-14.769-44.725-20.657-98.897-17.029-156.661c3.723-59.274,17.489-122.374,39.81-182.478
			c49.358-132.907,135.948-244.191,243.821-313.351C710.257,84.906,717.695,50.886,701.301,25.315z"/>
	</g>
</g>
<g id="Layer_1">
</g>
</svg>
