<?xml version="1.0" encoding="iso-8859-1"?>
<!-- Generator: Adobe Illustrator 25.2.3, SVG Export Plug-In . SVG Version: 6.00 Build 0)  -->
<svg version="1.1" xmlns="http://www.w3.org/2000/svg" xmlns:xlink="http://www.w3.org/1999/xlink" x="0px" y="0px"
	 viewBox="0 0 1000 1000" style="enable-background:new 0 0 1000 1000;" xml:space="preserve">
<g id="leftSquareBracket">
	<g>
		<path d="M618.264,875.386c-46.979-2.26-89.541,0.771-132.377,6.153c-4.113-330.753-17.188-588.928-38.957-769.518
			c2.241-0.032,4.492-0.063,6.755-0.095c22.1-0.306,44.952-0.622,70.177-2.009c30.33-1.668,53.565-27.607,51.897-57.937
			c-1.668-30.33-27.578-53.561-57.938-51.897c-22.968,1.263-43.705,1.55-65.659,1.854c-22.245,0.308-45.248,0.626-70.804,2.031
			c-15.434,0.849-29.798,8.152-39.576,20.123s-14.068,27.504-11.819,42.796c27.429,186.513,43.106,482.116,46.594,878.597
			c0.141,15.998,7.241,31.143,19.449,41.483c10.003,8.473,22.622,13.033,35.548,13.032c2.85,0,5.716-0.222,8.57-0.672
			c59.498-9.384,113.57-16.919,172.856-14.069c30.316,1.439,56.119-21.955,57.578-52.295
			C672.018,902.623,648.604,876.845,618.264,875.386z"/>
	</g>
</g>
<g id="Layer_1">
</g>
</svg>
