<?xml version="1.0" encoding="iso-8859-1"?>
<!-- Generator: Adobe Illustrator 25.2.3, SVG Export Plug-In . SVG Version: 6.00 Build 0)  -->
<svg version="1.1" xmlns="http://www.w3.org/2000/svg" xmlns:xlink="http://www.w3.org/1999/xlink" x="0px" y="0px"
	 viewBox="0 0 1000 1000" style="enable-background:new 0 0 1000 1000;" xml:space="preserve">
<g id="lessThanSign">
	<g>
		<path d="M674.403,708.536c-37.09-13.984-111.22-64.22-256.104-220.892c64.294-73.57,123.496-128.611,196.797-183.668
			c24.287-18.242,29.188-52.72,10.945-77.007c-18.242-24.288-52.721-29.188-77.008-10.946
			c-91.01,68.358-164.681,139.456-246.336,237.732c-17.459,21.014-16.848,51.658,1.436,71.958
			c149.599,166.093,254.924,256.893,331.464,285.751c6.391,2.409,12.945,3.552,19.395,3.551
			c22.23-0.001,43.166-13.579,51.473-35.611C717.18,750.981,702.826,719.253,674.403,708.536z"/>
	</g>
</g>
<g id="Layer_1">
</g>
</svg>
