<?xml version="1.0" encoding="iso-8859-1"?>
<!-- Generator: Adobe Illustrator 25.2.3, SVG Export Plug-In . SVG Version: 6.00 Build 0)  -->
<svg version="1.1" xmlns="http://www.w3.org/2000/svg" xmlns:xlink="http://www.w3.org/1999/xlink" x="0px" y="0px"
	 viewBox="0 0 1000 1000" style="enable-background:new 0 0 1000 1000;" xml:space="preserve">
<g id="percentSign">
	<g>
		<path style="fill:#010101;" d="M690.766,40.93c-17.657-17.95-45.246-21.618-66.98-8.907c-6.242,3.652-22.09,9.146-58.047,4.925
			c-30.521-3.584-64.199-12.694-93.912-20.731C438.333,7.156,411.878,0,389.518,0c-32.895,0-62.215,19.105-80.441,52.418
			C296.775,74.902,290,102.887,290,131.216c0,29.336,9.37,57.64,26.384,79.697c20.585,26.687,51.144,41.992,83.841,41.992
			c32.289,0,61.038-15.149,78.874-41.564c12.526-18.55,19.262-41.998,19.479-67.807c0.02-2.324-0.014-4.664-0.101-7.014
			c16.382,3.709,33.313,6.959,50.336,9.117C436.241,343.349,357.901,523.814,315.514,683.264
			c-7.804,29.355,9.667,59.479,39.023,67.284c4.735,1.259,9.487,1.859,14.166,1.859c24.325-0.002,46.574-16.263,53.119-40.883
			c46.363-174.403,139.473-377.442,276.743-603.477C711.634,86.526,708.421,58.879,690.766,40.93z"/>
		<path style="fill:#010101;" d="M663.965,574.313c5.882-9.935,8.698-21.795,7.306-34.151
			c-3.402-30.185-30.629-51.898-60.814-48.494c-67.776,7.639-105.821,41.924-125.802,69.34
			c-22.357,30.677-34.67,70.139-34.67,111.117c0,38.156,7.421,69.635,22.057,93.562C491.209,797.026,522.955,815,559.138,815
			c40.536,0,77.1-22.011,100.312-60.39c16.327-26.992,25.69-61.24,25.69-93.964c0-22.703-5.53-49.792-14.793-72.463
			C668.332,583.25,666.198,578.635,663.965,574.313z M568.168,692.287c-1.79,3.891-3.575,6.729-5.099,8.733
			c-1.586-5.902-3.086-15.288-3.086-28.895c0-14.617,3.405-28.733,9.492-39.875c0.413,1.124,0.825,2.327,1.234,3.611
			c3.505,11.031,4.431,21.035,4.431,24.784C575.141,670.971,572.534,682.799,568.168,692.287z"/>
	</g>
</g>
<g id="Layer_1">
</g>
</svg>
