<?xml version="1.0" encoding="iso-8859-1"?>
<!-- Generator: Adobe Illustrator 25.2.3, SVG Export Plug-In . SVG Version: 6.00 Build 0)  -->
<svg version="1.1" xmlns="http://www.w3.org/2000/svg" xmlns:xlink="http://www.w3.org/1999/xlink" x="0px" y="0px"
	 viewBox="0 0 1000 1000" style="enable-background:new 0 0 1000 1000;" xml:space="preserve">
<g id="plusSign">
	<g>
		<path style="fill:#010101;" d="M655.962,341.9c-38.608-0.675-80.75,0.9-123.029,3.77c-0.825-31.88-2.663-64.036-8.139-95.191
			c-5.258-29.917-33.775-49.907-63.691-44.648c-29.917,5.258-49.907,33.774-44.648,63.691c4.613,26.244,6.032,56.047,6.682,86.109
			c-30.73,3.403-59.776,7.076-85.557,10.586c-30.098,4.098-51.175,31.819-47.077,61.917c3.755,27.581,27.347,47.587,54.428,47.587
			c2.471,0,4.973-0.167,7.489-0.51c22.527-3.067,47.626-6.264,74.107-9.278c3.481,43.131,11.563,84.423,31.613,119.461
			c10.157,17.75,28.704,27.692,47.787,27.692c9.261,0,18.652-2.344,27.267-7.273c26.364-15.087,35.506-48.689,20.419-75.054
			c-10.422-18.213-15.211-44.958-17.546-75.065c40.789-2.858,81.292-4.453,117.972-3.811c0.328,0.006,0.654,0.009,0.98,0.009
			c29.928-0.001,54.447-23.996,54.973-54.039C710.522,367.482,686.333,342.431,655.962,341.9z"/>
	</g>
</g>
<g id="Layer_1">
</g>
</svg>
