<?xml version="1.0" encoding="iso-8859-1"?>
<!-- Generator: Adobe Illustrator 25.2.3, SVG Export Plug-In . SVG Version: 6.00 Build 0)  -->
<svg version="1.1" xmlns="http://www.w3.org/2000/svg" xmlns:xlink="http://www.w3.org/1999/xlink" x="0px" y="0px"
	 viewBox="0 0 1000 1000" style="enable-background:new 0 0 1000 1000;" xml:space="preserve">
<g id="questionMark">
	<g>
		<path d="M709.726,538.659c-3.028-30.225-29.989-52.269-60.211-49.24c-35.707,3.579-88.333,7.432-136.273,5.456
			c-32.414-1.335-51.97-4.971-63.213-8.108c4.816-9.33,13.309-23.51,28.27-44.2c22.488-31.1,51.456-65.898,79.47-99.55
			c64.215-77.138,98.048-119.09,105.013-155.584c1.803-9.449,1.097-19.207-2.05-28.297c-8.954-25.875-29.069-46.827-59.786-62.274
			c-20.419-10.269-45.647-18.325-77.127-24.628c-59.396-11.893-129.786-14.854-178.375-15.245c-0.152-0.001-0.3-0.002-0.451-0.002
			c-30.167,0-54.746,24.335-54.989,54.558c-0.244,30.375,24.181,55.196,54.556,55.44c54.934,0.442,104.241,4.026,142.59,10.365
			c24.554,4.059,41.182,8.665,52.237,12.671c-2.666,3.714-5.771,7.917-9.385,12.664c-15.637,20.541-35.619,44.544-56.774,69.957
			c-78.856,94.727-131.094,160.837-138.434,214.562c-0.024,0.174-0.047,0.349-0.069,0.523c-3.388,26.703,5.159,52.101,24.067,71.512
			c26.325,27.026,71.39,41.376,141.825,45.161c13.102,0.704,26.487,1.009,39.85,1.009c44.105-0.001,87.915-3.318,120.02-6.536
			C690.709,595.841,712.755,568.884,709.726,538.659z"/>
		<path d="M480.268,696.73l-41.193,9.748c-29.56,6.995-47.851,36.628-40.856,66.188c5.988,25.301,28.559,42.347,53.476,42.347
			c4.193,0,8.454-0.483,12.712-1.491l41.193-9.748c29.559-6.995,47.851-36.628,40.855-66.188
			C539.46,708.027,509.826,689.733,480.268,696.73z"/>
	</g>
</g>
<g id="Layer_1">
</g>
</svg>
