<?xml version="1.0" encoding="iso-8859-1"?>
<!-- Generator: Adobe Illustrator 25.2.3, SVG Export Plug-In . SVG Version: 6.00 Build 0)  -->
<svg version="1.1" xmlns="http://www.w3.org/2000/svg" xmlns:xlink="http://www.w3.org/1999/xlink" x="0px" y="0px"
	 viewBox="0 0 1000 1000" style="enable-background:new 0 0 1000 1000;" xml:space="preserve">
<g id="quotationMark">
	<g>
		<path style="fill:#010101;" d="M475.64,129.728c-13.6-35.662-28.599-65.09-44.581-87.465
			c-17.656-24.718-52.006-30.443-76.724-12.787c-24.718,17.656-30.442,52.006-12.787,76.724
			c21.053,29.474,43.856,89.252,55.454,145.371c5.372,25.994,28.264,43.879,53.805,43.879c3.688,0,7.435-0.374,11.188-1.149
			c29.747-6.147,48.878-35.246,42.73-64.993C497.846,196.019,487.789,161.585,475.64,129.728z"/>
		<path style="fill:#010101;" d="M663.188,168.369c-5.7-11.757-11.758-25.803-18.172-40.674
			c-16.671-38.653-33.909-78.622-56.256-106.84c-18.858-23.814-53.449-27.83-77.262-8.973c-23.813,18.858-27.831,53.45-8.973,77.263
			c13.328,16.83,28.286,51.513,41.484,82.113c6.909,16.02,13.435,31.151,20.195,45.097c9.504,19.604,29.115,31.02,49.531,31.02
			c8.049,0,16.224-1.775,23.953-5.522C665.023,228.602,676.439,195.702,663.188,168.369z"/>
	</g>
</g>
<g id="Layer_1">
</g>
</svg>
