<?xml version="1.0" encoding="iso-8859-1"?>
<!-- Generator: Adobe Illustrator 25.2.3, SVG Export Plug-In . SVG Version: 6.00 Build 0)  -->
<svg version="1.1" xmlns="http://www.w3.org/2000/svg" xmlns:xlink="http://www.w3.org/1999/xlink" x="0px" y="0px"
	 viewBox="0 0 1000 1000" style="enable-background:new 0 0 1000 1000;" xml:space="preserve">
<g id="reverseSolidus">
	<g>
		<path d="M691.645,718.986c-21.672-19.364-46.167-60.431-72.804-122.058c-26.367-61.002-51.744-134.219-78.612-211.735
			c-44.368-128.009-90.247-260.375-147.844-358.116C376.964,0.908,343.248-7.807,317.077,7.615
			c-26.17,15.421-34.883,49.138-19.462,75.308c52.026,88.287,96.078,215.383,138.68,338.294
			c58.499,168.776,109.02,314.537,182.061,379.796c10.491,9.375,23.582,13.987,36.626,13.987c15.116,0,30.168-6.196,41.032-18.356
			C716.253,773.993,714.296,739.225,691.645,718.986z"/>
	</g>
</g>
<g id="Layer_1">
</g>
</svg>
