<?xml version="1.0" encoding="iso-8859-1"?>
<!-- Generator: Adobe Illustrator 25.2.3, SVG Export Plug-In . SVG Version: 6.00 Build 0)  -->
<svg version="1.1" xmlns="http://www.w3.org/2000/svg" xmlns:xlink="http://www.w3.org/1999/xlink" x="0px" y="0px"
	 viewBox="0 0 1000 1000" style="enable-background:new 0 0 1000 1000;" xml:space="preserve">
<g id="rightCurlyBracket">
	<g>
		<path style="fill:#010101;" d="M657.121,522.501c-2.667-22.303-18.804-40.645-40.493-46.482
			c-20.178-5.43-33.871-15.436-43.095-31.489c-17.903-31.158-18.599-84.323-1.907-145.862
			c37.172-137.048,8.074-209.21-22.881-245.613c-17.639-20.743-40.354-35.65-67.517-44.307c-25.86-8.243-55.885-10.666-89.244-7.202
			c-30.213,3.137-52.163,30.173-49.025,60.386c3.137,30.214,30.176,52.161,60.386,49.026c30.635-3.181,51.36,1.312,61.601,13.355
			c14.66,17.239,22.493,64.53,0.516,145.559c-11.361,41.888-16.657,81.693-15.74,118.31c1.071,42.78,10.638,80.176,28.435,111.149
			c8.135,14.158,17.948,26.83,29.278,37.896c-36.365,44.863-30.393,84.472-22.636,105.506
			c34.112,92.498,41.18,166.96,19.903,209.672c-9.925,19.923-25.853,32.614-50.125,39.939c-29.08,8.776-45.539,39.466-36.763,68.546
			c7.178,23.783,29.009,39.125,52.634,39.123c5.261-0.001,10.616-0.762,15.912-2.36c53.034-16.006,93.423-49.271,116.801-96.199
			c35.422-71.104,30.998-169.07-13.142-291.262c5.611-8.913,23.348-24.073,39.146-33.052
			C648.825,566.343,659.785,544.778,657.121,522.501z"/>
	</g>
</g>
<g id="Layer_1">
</g>
</svg>
