<?xml version="1.0" encoding="iso-8859-1"?>
<!-- Generator: Adobe Illustrator 25.2.3, SVG Export Plug-In . SVG Version: 6.00 Build 0)  -->
<svg version="1.1" xmlns="http://www.w3.org/2000/svg" xmlns:xlink="http://www.w3.org/1999/xlink" x="0px" y="0px"
	 viewBox="0 0 1000 1000" style="enable-background:new 0 0 1000 1000;" xml:space="preserve">
<g id="rightParenthesis">
	<g>
		<path style="fill:#010101;" d="M709.959,493.828c-0.599-46.518-7.938-92.659-21.814-137.144
			c-14.294-45.828-35.58-90.034-63.267-131.39C566.46,138.033,480.912,64.362,370.61,6.326
			c-26.881-14.143-60.14-3.817-74.284,23.064c-14.144,26.882-3.818,60.14,23.064,74.284
			c93.928,49.42,165.955,110.928,214.08,182.813c43.171,64.486,65.543,134.722,66.498,208.758
			c0.984,76.353-21.583,153.558-65.263,223.268c-45.057,71.907-111.251,133.627-191.429,178.489
			c-26.508,14.832-35.974,48.345-21.142,74.853c10.078,18.012,28.779,28.154,48.048,28.154c9.091,0,18.308-2.258,26.806-7.013
			c96.244-53.851,176.098-128.569,230.93-216.077C682.848,689.257,711.217,591.365,709.959,493.828z"/>
	</g>
</g>
<g id="Layer_1">
</g>
</svg>
