<?xml version="1.0" encoding="iso-8859-1"?>
<!-- Generator: Adobe Illustrator 25.2.3, SVG Export Plug-In . SVG Version: 6.00 Build 0)  -->
<svg version="1.1" xmlns="http://www.w3.org/2000/svg" xmlns:xlink="http://www.w3.org/1999/xlink" x="0px" y="0px"
	 viewBox="0 0 1000 1000" style="enable-background:new 0 0 1000 1000;" xml:space="preserve">
<g id="rightSquareBracket">
	<g>
		<path d="M660.603,935.659l-1.631-20.897c-26.401-338.168-49.203-630.221-10.043-850.119c3.233-18.156-2.849-36.725-16.196-49.45
			C619.384,2.466,600.547-2.723,582.565,1.374c-56.76,12.929-126.478,16.93-181.945,10.442
			c-30.173-3.53-57.488,18.068-61.018,48.238c-3.528,30.17,18.068,57.488,48.238,61.017c43.871,5.131,93.493,5.023,141.752,0.08
			c-24.724,213.214-5.91,473.267,17.112,768.838c-36.481,0.174-75.871-5.553-113.407-16.745
			c-29.111-8.681-59.743,7.882-68.422,36.991c-8.68,29.109,7.881,59.743,36.991,68.423c30.469,9.085,82.94,21.414,143.292,21.412
			c22.546-0.001,46.204-1.723,70.209-5.977C643.234,989.153,662.804,963.874,660.603,935.659z"/>
	</g>
</g>
<g id="Layer_1">
</g>
</svg>
