<?xml version="1.0" encoding="iso-8859-1"?>
<!-- Generator: Adobe Illustrator 25.2.3, SVG Export Plug-In . SVG Version: 6.00 Build 0)  -->
<svg version="1.1" xmlns="http://www.w3.org/2000/svg" xmlns:xlink="http://www.w3.org/1999/xlink" x="0px" y="0px"
	 viewBox="0 0 1000 1000" style="enable-background:new 0 0 1000 1000;" xml:space="preserve">
<g id="semicolon">
	<g>
		<path style="fill:#010101;" d="M497.078,678.1c-29.819,5.786-49.302,34.65-43.516,64.47c4.803,24.754-3.45,33.241-7.417,37.32
			c-21.176,21.777-20.688,56.599,1.089,77.774c10.689,10.394,24.52,15.568,38.338,15.568c14.333,0,28.654-5.569,39.437-16.657
			c23.855-24.533,49.559-67.861,36.539-134.959C555.761,691.797,526.899,672.321,497.078,678.1z"/>
		<path style="fill:#010101;" d="M485.51,375.284c2.95,0,5.943-0.238,8.949-0.73l28.846-4.72
			c29.977-4.906,50.302-33.183,45.396-63.16c-4.906-29.977-33.187-50.302-63.16-45.396l-28.846,4.721
			c-29.977,4.905-50.302,33.183-45.396,63.16C435.712,356.128,459.042,375.284,485.51,375.284z"/>
	</g>
</g>
<g id="Layer_1">
</g>
</svg>
